<?xml version="1.0" encoding="UTF-8" standalone="no"?>
<!DOCTYPE svg PUBLIC "-//W3C//DTD SVG 1.1//EN" "http://www.w3.org/Graphics/SVG/1.1/DTD/svg11.dtd">
<!-- Generated by graphviz version 2.40.1 (20161225.0304)
 -->
<!-- Title: PetriNet Pages: 1 -->
<svg xmlns="http://www.w3.org/2000/svg" xmlns:xlink="http://www.w3.org/1999/xlink" width="292pt" height="269pt" viewBox="0.00 0.00 292.00 269.00">
<g id="graph0" class="graph" transform="scale(1 1) rotate(0) translate(4 265)">
<title>PetriNet</title>
<polygon fill="#ffffff" stroke="transparent" points="-4,4 -4,-265 288,-265 288,4 -4,4"/>
<g id="clust1" class="cluster">
<title>cluster_place_vote</title>

<text text-anchor="middle" x="125.0518" y="-237.8" font-family="Times,serif" font-size="14.00" fill="#000000">vote</text>
</g>
<g id="clust2" class="cluster">
<title>cluster_place_affirmative</title>

<text text-anchor="middle" x="186.7104" y="-84.8" font-family="Times,serif" font-size="14.00" fill="#000000">affirmative</text>
</g>
<g id="clust3" class="cluster">
<title>cluster_place_negative</title>

<text text-anchor="middle" x="93.7104" y="-84.8" font-family="Times,serif" font-size="14.00" fill="#000000">negative</text>
</g>
<g id="clust4" class="cluster">
<title>cluster_transition_NAY</title>

<text text-anchor="middle" x="30.5229" y="-137.8" font-family="Times,serif" font-size="14.00" fill="#000000">NAY</text>
</g>
<g id="clust5" class="cluster">
<title>cluster_transition_YAY</title>

<text text-anchor="middle" x="245.7471" y="-137.8" font-family="Times,serif" font-size="14.00" fill="#000000">YAY</text>
</g>
<g id="clust6" class="cluster">
<title>cluster_transition_convert</title>

<text text-anchor="middle" x="106.9897" y="-137.8" font-family="Times,serif" font-size="14.00" fill="#000000">convert</text>
</g>
<g id="clust7" class="cluster">
<title>cluster_transition_dissent</title>

<text text-anchor="middle" x="178.4448" y="-137.8" font-family="Times,serif" font-size="14.00" fill="#000000">dissent</text>
</g>
<!-- place_vote -->
<g id="node1" class="node">
<title>place_vote</title>
<ellipse fill="none" stroke="#000000" cx="140" cy="-196" rx="27" ry="27"/>
<circle fill="#000000" stroke="none" cx="146" cy="-192.53589838486224" r="4.800000000000001"/><circle fill="#000000" stroke="none" cx="134" cy="-192.53589838486224" r="4.800000000000001"/><circle fill="#000000" stroke="none" cx="140" cy="-202.9282032302755" r="4.800000000000001"/>
</g>
<!-- transition_NAY -->
<g id="node4" class="node">
<title>transition_NAY</title>
<polygon fill="#ff0000" stroke="#000000" points="52,-123 16,-123 16,-116 52,-116 52,-123"/>
</g>
<!-- place_vote&#45;&gt;transition_NAY -->
<g id="edge1" class="edge">
<title>place_vote-&gt;transition_NAY</title>
<path fill="none" stroke="#000000" d="M116.1373,-183.287C101.9448,-175.308 83.868,-164.3975 69,-153 60.1759,-146.2356 51.1327,-137.525 44.4494,-130.6816"/>
<polygon fill="#000000" stroke="#000000" points="46.8637,-128.1411 37.4401,-123.2989 41.7872,-132.9609 46.8637,-128.1411"/>
</g>
<!-- transition_YAY -->
<g id="node5" class="node">
<title>transition_YAY</title>
<polygon fill="#ff0000" stroke="#000000" points="268,-123 232,-123 232,-116 268,-116 268,-123"/>
</g>
<!-- place_vote&#45;&gt;transition_YAY -->
<g id="edge3" class="edge">
<title>place_vote-&gt;transition_YAY</title>
<path fill="none" stroke="#000000" d="M164.176,-183.7288C179.0618,-175.7477 198.2437,-164.6803 214,-153 223.066,-146.2793 232.3679,-137.5672 239.2449,-130.7122"/>
<polygon fill="#000000" stroke="#000000" points="241.9845,-132.9159 246.4585,-123.312 236.972,-128.0297 241.9845,-132.9159"/>
</g>
<!-- place_affirmative -->
<g id="node2" class="node">
<title>place_affirmative</title>
<ellipse fill="none" stroke="#000000" cx="187" cy="-43" rx="27" ry="27"/>

</g>
<!-- transition_dissent -->
<g id="node7" class="node">
<title>transition_dissent</title>
<polygon fill="#000000" stroke="#000000" points="196,-123 160,-123 160,-116 196,-116 196,-123"/>
</g>
<!-- place_affirmative&#45;&gt;transition_dissent -->
<g id="edge7" class="edge">
<title>place_affirmative-&gt;transition_dissent</title>
<path fill="none" stroke="#000000" d="M183.8356,-69.8971C182.416,-81.9637 180.8014,-95.6879 179.631,-105.6366"/>
<polygon fill="#000000" stroke="#000000" points="176.1266,-105.4698 178.4341,-115.8102 183.0786,-106.2877 176.1266,-105.4698"/>
</g>
<!-- place_negative -->
<g id="node3" class="node">
<title>place_negative</title>
<ellipse fill="none" stroke="#000000" cx="97" cy="-43" rx="27" ry="27"/>

</g>
<!-- transition_convert -->
<g id="node6" class="node">
<title>transition_convert</title>
<polygon fill="#000000" stroke="#000000" points="124,-123 88,-123 88,-116 124,-116 124,-123"/>
</g>
<!-- place_negative&#45;&gt;transition_convert -->
<g id="edge5" class="edge">
<title>place_negative-&gt;transition_convert</title>
<path fill="none" stroke="#000000" d="M100.1644,-69.8971C101.584,-81.9637 103.1986,-95.6879 104.369,-105.6366"/>
<polygon fill="#000000" stroke="#000000" points="100.9214,-106.2877 105.5659,-115.8102 107.8734,-105.4698 100.9214,-106.2877"/>
</g>
<!-- transition_NAY&#45;&gt;place_negative -->
<g id="edge2" class="edge">
<title>transition_NAY-&gt;place_negative</title>
<path fill="none" stroke="#000000" d="M37.0386,-115.8102C43.5444,-107.9104 59.3486,-88.7195 73.0986,-72.0231"/>
<polygon fill="#000000" stroke="#000000" points="75.9785,-74.0318 79.6339,-64.0875 70.575,-69.5818 75.9785,-74.0318"/>
</g>
<!-- transition_YAY&#45;&gt;place_affirmative -->
<g id="edge4" class="edge">
<title>transition_YAY-&gt;place_affirmative</title>
<path fill="none" stroke="#000000" d="M246.9614,-115.8102C240.4556,-107.9104 224.6514,-88.7195 210.9014,-72.0231"/>
<polygon fill="#000000" stroke="#000000" points="213.425,-69.5818 204.3661,-64.0875 208.0215,-74.0318 213.425,-69.5818"/>
</g>
<!-- transition_convert&#45;&gt;place_affirmative -->
<g id="edge6" class="edge">
<title>transition_convert-&gt;place_affirmative</title>
<path fill="none" stroke="#000000" d="M114.3395,-115.9666C121.8058,-112.5561 132.8074,-106.9013 141,-100 150.0098,-92.4103 158.5227,-82.8493 165.7184,-73.7375"/>
<polygon fill="#000000" stroke="#000000" points="168.6657,-75.6439 171.9329,-65.5654 163.0938,-71.4067 168.6657,-75.6439"/>
</g>
<!-- transition_dissent&#45;&gt;place_negative -->
<g id="edge8" class="edge">
<title>transition_dissent-&gt;place_negative</title>
<path fill="none" stroke="#000000" d="M167.6095,-115.8689C159.2668,-112.6052 147.5711,-107.2151 139,-100 130.5197,-92.8613 122.8022,-83.6789 116.3624,-74.7785"/>
<polygon fill="#000000" stroke="#000000" points="119.1515,-72.6575 110.5965,-66.4074 113.3866,-76.6282 119.1515,-72.6575"/>
</g>
</g>
</svg>
