<?xml version="1.0" encoding="UTF-8" standalone="no"?>
<!DOCTYPE svg PUBLIC "-//W3C//DTD SVG 1.1//EN" "http://www.w3.org/Graphics/SVG/1.1/DTD/svg11.dtd">
<!-- Generated by graphviz version 2.40.1 (20161225.0304)
 -->
<!-- Title: PetriNet Pages: 1 -->
<svg xmlns="http://www.w3.org/2000/svg" xmlns:xlink="http://www.w3.org/1999/xlink" width="292pt" height="269pt" viewBox="0.00 0.00 292.00 269.00">
<g id="graph0" class="graph" transform="scale(1 1) rotate(0) translate(4 265)">
<title>PetriNet</title>
<polygon fill="#ffffff" stroke="transparent" points="-4,4 -4,-265 288,-265 288,4 -4,4"/>
<g id="clust1" class="cluster">
<title>cluster_transition_NAY</title>

<text text-anchor="middle" x="30.5229" y="-137.8" font-family="Times,serif" font-size="14.00" fill="#000000">NAY</text>
</g>
<g id="clust2" class="cluster">
<title>cluster_transition_YAY</title>

<text text-anchor="middle" x="245.7471" y="-137.8" font-family="Times,serif" font-size="14.00" fill="#000000">YAY</text>
</g>
<g id="clust3" class="cluster">
<title>cluster_transition_convert</title>

<text text-anchor="middle" x="178.9897" y="-137.8" font-family="Times,serif" font-size="14.00" fill="#000000">convert</text>
</g>
<g id="clust4" class="cluster">
<title>cluster_transition_dissent</title>

<text text-anchor="middle" x="106.4448" y="-137.8" font-family="Times,serif" font-size="14.00" fill="#000000">dissent</text>
</g>
<g id="clust5" class="cluster">
<title>cluster_place_vote</title>

<text text-anchor="middle" x="125.0518" y="-237.8" font-family="Times,serif" font-size="14.00" fill="#000000">vote</text>
</g>
<g id="clust6" class="cluster">
<title>cluster_place_affirmative</title>

<text text-anchor="middle" x="186.7104" y="-84.8" font-family="Times,serif" font-size="14.00" fill="#000000">affirmative</text>
</g>
<g id="clust7" class="cluster">
<title>cluster_place_negative</title>

<text text-anchor="middle" x="93.7104" y="-84.8" font-family="Times,serif" font-size="14.00" fill="#000000">negative</text>
</g>
<!-- node_NAY -->
<g id="node1" class="node">
<title>node_NAY</title>
<polygon fill="#ff0000" stroke="#000000" points="52,-123 16,-123 16,-116 52,-116 52,-123"/>
</g>
<!-- node_negative -->
<g id="node7" class="node">
<title>node_negative</title>
<ellipse fill="none" stroke="#000000" cx="97" cy="-43" rx="27" ry="27"/>

</g>
<!-- node_NAY&#45;&gt;node_negative -->
<g id="edge3" class="edge">
<title>node_NAY-&gt;node_negative</title>
<path fill="none" stroke="#000000" d="M37.0386,-115.8102C43.5444,-107.9104 59.3486,-88.7195 73.0986,-72.0231"/>
<polygon fill="#000000" stroke="#000000" points="75.9785,-74.0318 79.6339,-64.0875 70.575,-69.5818 75.9785,-74.0318"/>
</g>
<!-- node_YAY -->
<g id="node2" class="node">
<title>node_YAY</title>
<polygon fill="#ff0000" stroke="#000000" points="268,-123 232,-123 232,-116 268,-116 268,-123"/>
</g>
<!-- node_affirmative -->
<g id="node6" class="node">
<title>node_affirmative</title>
<ellipse fill="none" stroke="#000000" cx="187" cy="-43" rx="27" ry="27"/>

</g>
<!-- node_YAY&#45;&gt;node_affirmative -->
<g id="edge5" class="edge">
<title>node_YAY-&gt;node_affirmative</title>
<path fill="none" stroke="#000000" d="M246.9614,-115.8102C240.4556,-107.9104 224.6514,-88.7195 210.9014,-72.0231"/>
<polygon fill="#000000" stroke="#000000" points="213.425,-69.5818 204.3661,-64.0875 208.0215,-74.0318 213.425,-69.5818"/>
</g>
<!-- node_convert -->
<g id="node3" class="node">
<title>node_convert</title>
<polygon fill="#000000" stroke="#000000" points="196,-123 160,-123 160,-116 196,-116 196,-123"/>
</g>
<!-- node_convert&#45;&gt;node_affirmative -->
<g id="edge7" class="edge">
<title>node_convert-&gt;node_affirmative</title>
<path fill="none" stroke="#000000" d="M178.4341,-115.8102C179.2139,-109.1816 180.929,-94.6035 182.6212,-80.2198"/>
<polygon fill="#000000" stroke="#000000" points="186.1432,-80.2376 183.8356,-69.8971 179.1911,-79.4196 186.1432,-80.2376"/>
</g>
<!-- node_dissent -->
<g id="node4" class="node">
<title>node_dissent</title>
<polygon fill="#000000" stroke="#000000" points="124,-123 88,-123 88,-116 124,-116 124,-123"/>
</g>
<!-- node_dissent&#45;&gt;node_negative -->
<g id="edge8" class="edge">
<title>node_dissent-&gt;node_negative</title>
<path fill="none" stroke="#000000" d="M105.5659,-115.8102C104.7861,-109.1816 103.071,-94.6035 101.3788,-80.2198"/>
<polygon fill="#000000" stroke="#000000" points="104.8089,-79.4196 100.1644,-69.8971 97.8568,-80.2376 104.8089,-79.4196"/>
</g>
<!-- node_vote -->
<g id="node5" class="node">
<title>node_vote</title>
<ellipse fill="none" stroke="#000000" cx="140" cy="-196" rx="27" ry="27"/>
<circle fill="#000000" stroke="none" cx="146" cy="-192.53589838486224" r="4.800000000000001"/><circle fill="#000000" stroke="none" cx="134" cy="-192.53589838486224" r="4.800000000000001"/><circle fill="#000000" stroke="none" cx="140" cy="-202.9282032302755" r="4.800000000000001"/>
</g>
<!-- node_vote&#45;&gt;node_NAY -->
<g id="edge1" class="edge">
<title>node_vote-&gt;node_NAY</title>
<path fill="none" stroke="#000000" d="M116.2231,-182.9746C102.3053,-174.9685 84.6452,-164.1368 70,-153 61.0169,-146.1689 51.7123,-137.4604 44.8133,-130.6347"/>
<polygon fill="#000000" stroke="#000000" points="47.0778,-127.9462 37.5664,-123.2788 42.0912,-132.8588 47.0778,-127.9462"/>
</g>
<!-- node_vote&#45;&gt;node_YAY -->
<g id="edge2" class="edge">
<title>node_vote-&gt;node_YAY</title>
<path fill="none" stroke="#000000" d="M164.6283,-184.1701C180.0208,-176.2768 199.9054,-165.1449 216,-153 224.7438,-146.402 233.523,-137.6859 239.9697,-130.7983"/>
<polygon fill="#000000" stroke="#000000" points="242.5959,-133.1125 246.7099,-123.349 237.4052,-128.4159 242.5959,-133.1125"/>
</g>
<!-- node_affirmative&#45;&gt;node_dissent -->
<g id="edge6" class="edge">
<title>node_affirmative-&gt;node_dissent</title>
<path fill="none" stroke="#000000" d="M171.9329,-65.5654C163.6881,-76.8108 152.768,-90.087 141,-100 135.7516,-104.4211 129.3504,-108.3307 123.4644,-111.4664"/>
<polygon fill="#000000" stroke="#000000" points="121.76,-108.4044 114.3395,-115.9666 124.8562,-114.6824 121.76,-108.4044"/>
</g>
<!-- node_negative&#45;&gt;node_convert -->
<g id="edge4" class="edge">
<title>node_negative-&gt;node_convert</title>
<path fill="none" stroke="#000000" d="M110.5965,-66.4074C117.9473,-77.601 127.8094,-90.5799 139,-100 144.6248,-104.7349 151.5952,-108.6838 158.0806,-111.7617"/>
<polygon fill="#000000" stroke="#000000" points="157.0409,-115.1247 167.6095,-115.8689 159.8117,-108.6965 157.0409,-115.1247"/>
</g>
</g>
</svg>
