<?xml version="1.0" encoding="UTF-8" standalone="no"?>
<!DOCTYPE svg PUBLIC "-//W3C//DTD SVG 1.1//EN" "http://www.w3.org/Graphics/SVG/1.1/DTD/svg11.dtd">
<!-- Generated by graphviz version 2.40.1 (20161225.0304)
 -->
<!-- Title: PetriNet Pages: 1 -->
<svg xmlns="http://www.w3.org/2000/svg" xmlns:xlink="http://www.w3.org/1999/xlink" width="955pt" height="728pt" viewBox="0.00 0.00 955.00 728.00">
<g id="graph0" class="graph" transform="scale(1 1) rotate(0) translate(4 724)">
<title>PetriNet</title>
<polygon fill="#ffffff" stroke="transparent" points="-4,4 -4,-724 951,-724 951,4 -4,4"/>
<g id="clust1" class="cluster">
<title>cluster_transition_CommandRunTestStep</title>

<text text-anchor="middle" x="476.8423" y="-290.8" font-family="Times,serif" font-size="14.00" fill="#000000">CommandRunTestStep</text>
</g>
<g id="clust2" class="cluster">
<title>cluster_transition_Execute</title>

<text text-anchor="middle" x="787.5415" y="-443.8" font-family="Times,serif" font-size="14.00" fill="#000000">Execute</text>
</g>
<g id="clust3" class="cluster">
<title>cluster_transition_GlueCode</title>

<text text-anchor="middle" x="864.3828" y="-443.8" font-family="Times,serif" font-size="14.00" fill="#000000">GlueCode</text>
</g>
<g id="clust4" class="cluster">
<title>cluster_transition_PickleStep</title>

<text text-anchor="middle" x="652.9414" y="-596.8" font-family="Times,serif" font-size="14.00" fill="#000000">PickleStep</text>
</g>
<g id="clust5" class="cluster">
<title>cluster_transition_PickleStepMatched(0)</title>

<text text-anchor="middle" x="372.5933" y="-443.8" font-family="Times,serif" font-size="14.00" fill="#000000">PickleStepMatched(0)</text>
</g>
<g id="clust6" class="cluster">
<title>cluster_transition_PickleStepMatched(1)</title>

<text text-anchor="middle" x="521.5933" y="-443.8" font-family="Times,serif" font-size="14.00" fill="#000000">PickleStepMatched(1)</text>
</g>
<g id="clust7" class="cluster">
<title>cluster_transition_PickleStepMatched(2+)</title>

<text text-anchor="middle" x="674.541" y="-443.8" font-family="Times,serif" font-size="14.00" fill="#000000">PickleStepMatched(2+)</text>
</g>
<g id="clust8" class="cluster">
<title>cluster_transition_Start</title>

<text text-anchor="middle" x="805.2207" y="-596.8" font-family="Times,serif" font-size="14.00" fill="#000000">Start</text>
</g>
<g id="clust9" class="cluster">
<title>cluster_transition_TestStepFinished(FAILED)</title>

<text text-anchor="middle" x="464.1538" y="-137.8" font-family="Times,serif" font-size="14.00" fill="#000000">TestStepFinished(FAILED)</text>
</g>
<g id="clust10" class="cluster">
<title>cluster_transition_TestStepFinished(PASSED)</title>

<text text-anchor="middle" x="94.2065" y="-137.8" font-family="Times,serif" font-size="14.00" fill="#000000">TestStepFinished(PASSED)</text>
</g>
<g id="clust11" class="cluster">
<title>cluster_transition_TestStepFinished(PENDING)</title>

<text text-anchor="middle" x="279.5044" y="-137.8" font-family="Times,serif" font-size="14.00" fill="#000000">TestStepFinished(PENDING)</text>
</g>
<g id="clust12" class="cluster">
<title>cluster_place_Building Pickles</title>

<text text-anchor="middle" x="749.4741" y="-543.8" font-family="Times,serif" font-size="14.00" fill="#000000">Building Pickles</text>
</g>
<g id="clust13" class="cluster">
<title>cluster_place_UNKNOWN PickleStep</title>

<text text-anchor="middle" x="567.6294" y="-543.8" font-family="Times,serif" font-size="14.00" fill="#000000">UNKNOWN PickleStep</text>
</g>
<g id="clust14" class="cluster">
<title>cluster_place_GlueCode loaded</title>

<text text-anchor="middle" x="837.7915" y="-390.8" font-family="Times,serif" font-size="14.00" fill="#000000">GlueCode loaded</text>
</g>
<g id="clust15" class="cluster">
<title>cluster_place_Executing</title>

<text text-anchor="middle" x="565.3794" y="-390.8" font-family="Times,serif" font-size="14.00" fill="#000000">Executing</text>
</g>
<g id="clust16" class="cluster">
<title>cluster_place_AMBIGUOUS PickleStep</title>

<text text-anchor="middle" x="691.0845" y="-390.8" font-family="Times,serif" font-size="14.00" fill="#000000">AMBIGUOUS PickleStep</text>
</g>
<g id="clust17" class="cluster">
<title>cluster_place_UNDEFINED PickleStep</title>

<text text-anchor="middle" x="310.7432" y="-390.8" font-family="Times,serif" font-size="14.00" fill="#000000">UNDEFINED PickleStep</text>
</g>
<g id="clust18" class="cluster">
<title>cluster_place_Defined PickleStep</title>

<text text-anchor="middle" x="459.8535" y="-390.8" font-family="Times,serif" font-size="14.00" fill="#000000">Defined PickleStep</text>
</g>
<g id="clust19" class="cluster">
<title>cluster_place_Idle</title>

<text text-anchor="middle" x="793.8828" y="-696.8" font-family="Times,serif" font-size="14.00" fill="#000000">Idle</text>
</g>
<g id="clust20" class="cluster">
<title>cluster_place_Loading GlueCode</title>

<text text-anchor="middle" x="878.4604" y="-543.8" font-family="Times,serif" font-size="14.00" fill="#000000">Loading GlueCode</text>
</g>
<g id="clust21" class="cluster">
<title>cluster_place_Running TestStep</title>

<text text-anchor="middle" x="376.7485" y="-237.8" font-family="Times,serif" font-size="14.00" fill="#000000">Running TestStep</text>
</g>
<g id="clust22" class="cluster">
<title>cluster_place_Idle Executors</title>

<text text-anchor="middle" x="394.6226" y="-84.8" font-family="Times,serif" font-size="14.00" fill="#000000">Idle Executors</text>
</g>
<g id="clust23" class="cluster">
<title>cluster_place_PENDING TestStep</title>

<text text-anchor="middle" x="274.3555" y="-84.8" font-family="Times,serif" font-size="14.00" fill="#000000">PENDING TestStep</text>
</g>
<g id="clust24" class="cluster">
<title>cluster_place_FAILED TestStep</title>

<text text-anchor="middle" x="509.0049" y="-84.8" font-family="Times,serif" font-size="14.00" fill="#000000">FAILED TestStep</text>
</g>
<g id="clust25" class="cluster">
<title>cluster_place_PASSED TestStep</title>

<text text-anchor="middle" x="134.0576" y="-84.8" font-family="Times,serif" font-size="14.00" fill="#000000">PASSED TestStep</text>
</g>
<!-- node_CommandRunTestStep -->
<g id="node1" class="node">
<title>node_CommandRunTestStep</title>
<polygon fill="#000000" stroke="#000000" points="494,-276 458,-276 458,-269 494,-269 494,-276"/>
</g>
<!-- node_Running TestStep -->
<g id="node21" class="node">
<title>node_Running TestStep</title>
<ellipse fill="none" stroke="#000000" cx="376" cy="-196" rx="27" ry="27"/>

</g>
<!-- node_CommandRunTestStep&#45;&gt;node_Running TestStep -->
<g id="edge2" class="edge">
<title>node_CommandRunTestStep-&gt;node_Running TestStep</title>
<path fill="none" stroke="#000000" d="M471.1768,-268.8102C459.5712,-259.932 429.3239,-236.7928 406.0138,-218.9606"/>
<polygon fill="#000000" stroke="#000000" points="407.8562,-215.9633 397.7871,-212.6672 403.603,-221.523 407.8562,-215.9633"/>
</g>
<!-- node_Execute -->
<g id="node2" class="node">
<title>node_Execute</title>
<polygon fill="#000000" stroke="#000000" points="801,-429 765,-429 765,-422 801,-422 801,-429"/>
</g>
<!-- node_GlueCode loaded -->
<g id="node14" class="node">
<title>node_GlueCode loaded</title>
<ellipse fill="none" stroke="#000000" cx="816" cy="-349" rx="27" ry="27"/>

</g>
<!-- node_Execute&#45;&gt;node_GlueCode loaded -->
<g id="edge9" class="edge">
<title>node_Execute-&gt;node_GlueCode loaded</title>
<path fill="none" stroke="#000000" d="M790.811,-421.8102C798.7371,-415.1019 807.5667,-400.2516 813.6584,-385.7008"/>
<polygon fill="#000000" stroke="#000000" points="816.9612,-386.8621 817.2292,-376.2707 810.4148,-384.3832 816.9612,-386.8621"/>
</g>
<!-- node_Executing -->
<g id="node15" class="node">
<title>node_Executing</title>
<ellipse fill="none" stroke="#000000" cx="566" cy="-349" rx="27" ry="27"/>

</g>
<!-- node_Execute&#45;&gt;node_Executing -->
<g id="edge10" class="edge">
<title>node_Execute-&gt;node_Executing</title>
<path fill="none" stroke="#000000" d="M777.0721,-421.9872C772.1493,-419.2667 764.8665,-415.6866 758,-414 740.9294,-409.8069 615.0608,-415.0643 600,-406 591.3538,-400.7964 584.6443,-392.4821 579.5582,-383.7946"/>
<polygon fill="#000000" stroke="#000000" points="582.5559,-381.9734 574.8325,-374.7209 576.3475,-385.2069 582.5559,-381.9734"/>
</g>
<!-- node_GlueCode -->
<g id="node3" class="node">
<title>node_GlueCode</title>
<polygon fill="#000000" stroke="#000000" points="873,-429 837,-429 837,-422 873,-422 873,-429"/>
</g>
<!-- node_GlueCode&#45;&gt;node_GlueCode loaded -->
<g id="edge18" class="edge">
<title>node_GlueCode-&gt;node_GlueCode loaded</title>
<path fill="none" stroke="#000000" d="M853.1189,-421.8102C849.4304,-414.5749 840.9133,-397.8683 832.967,-382.2814"/>
<polygon fill="#000000" stroke="#000000" points="836.0552,-380.6329 828.3951,-373.3135 829.8189,-383.8122 836.0552,-380.6329"/>
</g>
<!-- node_PickleStep -->
<g id="node4" class="node">
<title>node_PickleStep</title>
<polygon fill="#000000" stroke="#000000" points="670,-582 634,-582 634,-575 670,-575 670,-582"/>
</g>
<!-- node_Building Pickles -->
<g id="node12" class="node">
<title>node_Building Pickles</title>
<ellipse fill="none" stroke="#000000" cx="765" cy="-502" rx="27" ry="27"/>

</g>
<!-- node_PickleStep&#45;&gt;node_Building Pickles -->
<g id="edge19" class="edge">
<title>node_PickleStep-&gt;node_Building Pickles</title>
<path fill="none" stroke="#000000" d="M663.6696,-574.8102C682.1414,-566.5168 715.0076,-545.7792 738.7076,-528.5478"/>
<polygon fill="#000000" stroke="#000000" points="741.0504,-531.1671 746.9809,-522.3876 736.8698,-525.5526 741.0504,-531.1671"/>
</g>
<!-- node_UNKNOWN PickleStep -->
<g id="node13" class="node">
<title>node_UNKNOWN PickleStep</title>
<ellipse fill="none" stroke="#000000" cx="567" cy="-502" rx="27" ry="27"/>

</g>
<!-- node_PickleStep&#45;&gt;node_UNKNOWN PickleStep -->
<g id="edge20" class="edge">
<title>node_PickleStep-&gt;node_UNKNOWN PickleStep</title>
<path fill="none" stroke="#000000" d="M647.9003,-574.8102C638.4148,-566.2734 614.279,-544.5511 594.8221,-527.0399"/>
<polygon fill="#000000" stroke="#000000" points="597.1407,-524.4179 587.3664,-520.3297 592.458,-529.621 597.1407,-524.4179"/>
</g>
<!-- node_PickleStepMatched(0) -->
<g id="node5" class="node">
<title>node_PickleStepMatched(0)</title>
<polygon fill="#000000" stroke="#000000" points="435,-429 399,-429 399,-422 435,-422 435,-429"/>
</g>
<!-- node_PickleStepMatched(0)&#45;&gt;node_Executing -->
<g id="edge24" class="edge">
<title>node_PickleStepMatched(0)-&gt;node_Executing</title>
<path fill="none" stroke="#000000" d="M435.0507,-422.7946C444.4974,-420.0713 452.5224,-415.9964 460,-414 478.9717,-408.9349 531.2501,-416.248 548,-406 556.4317,-400.8413 563.2181,-392.8829 567.881,-384.5334"/>
<polygon fill="#000000" stroke="#000000" points="571.0682,-385.9799 572.0846,-375.4339 564.7134,-383.0442 571.0682,-385.9799"/>
</g>
<!-- node_UNDEFINED PickleStep -->
<g id="node17" class="node">
<title>node_UNDEFINED PickleStep</title>
<ellipse fill="none" stroke="#000000" cx="355" cy="-349" rx="27" ry="27"/>

</g>
<!-- node_PickleStepMatched(0)&#45;&gt;node_UNDEFINED PickleStep -->
<g id="edge25" class="edge">
<title>node_PickleStepMatched(0)-&gt;node_UNDEFINED PickleStep</title>
<path fill="none" stroke="#000000" d="M410.4045,-421.993C404.3195,-418.5229 395.3002,-412.7607 389,-406 382.4811,-399.0046 376.6159,-390.555 371.6655,-382.329"/>
<polygon fill="#000000" stroke="#000000" points="374.6626,-380.5193 366.6652,-373.5701 368.5835,-383.9898 374.6626,-380.5193"/>
</g>
<!-- node_PickleStepMatched(1) -->
<g id="node6" class="node">
<title>node_PickleStepMatched(1)</title>
<polygon fill="#000000" stroke="#000000" points="584,-429 548,-429 548,-422 584,-422 584,-429"/>
</g>
<!-- node_PickleStepMatched(1)&#45;&gt;node_GlueCode loaded -->
<g id="edge27" class="edge">
<title>node_PickleStepMatched(1)-&gt;node_GlueCode loaded</title>
<path fill="none" stroke="#000000" d="M584.0319,-422.7206C593.4632,-419.9369 601.4759,-415.8134 609,-414 629.6496,-409.0233 781.7533,-416.8735 800,-406 808.5048,-400.9318 815.1307,-392.8448 819.5004,-384.3362"/>
<polygon fill="#000000" stroke="#000000" points="822.7489,-385.6394 823.3385,-375.0609 816.2808,-382.9628 822.7489,-385.6394"/>
</g>
<!-- node_PickleStepMatched(1)&#45;&gt;node_Executing -->
<g id="edge28" class="edge">
<title>node_PickleStepMatched(1)-&gt;node_Executing</title>
<path fill="none" stroke="#000000" d="M572.2194,-421.8102C577.5311,-414.7293 579.9364,-398.5768 579.4352,-383.2804"/>
<polygon fill="#000000" stroke="#000000" points="582.8961,-382.6446 578.6238,-372.9493 575.9176,-383.1927 582.8961,-382.6446"/>
</g>
<!-- node_Defined PickleStep -->
<g id="node18" class="node">
<title>node_Defined PickleStep</title>
<ellipse fill="none" stroke="#000000" cx="476" cy="-349" rx="27" ry="27"/>

</g>
<!-- node_PickleStepMatched(1)&#45;&gt;node_Defined PickleStep -->
<g id="edge26" class="edge">
<title>node_PickleStepMatched(1)-&gt;node_Defined PickleStep</title>
<path fill="none" stroke="#000000" d="M552.9685,-421.9501C543.2076,-418.8465 529.8891,-413.6303 520,-406 510.9067,-398.9837 502.6732,-389.6619 495.8535,-380.5932"/>
<polygon fill="#000000" stroke="#000000" points="498.6663,-378.5095 490.0039,-372.4093 492.9715,-382.58 498.6663,-378.5095"/>
</g>
<!-- node_PickleStepMatched(2+) -->
<g id="node7" class="node">
<title>node_PickleStepMatched(2+)</title>
<polygon fill="#000000" stroke="#000000" points="665,-429 629,-429 629,-422 665,-422 665,-429"/>
</g>
<!-- node_PickleStepMatched(2+)&#45;&gt;node_GlueCode loaded -->
<g id="edge29" class="edge">
<title>node_PickleStepMatched(2+)-&gt;node_GlueCode loaded</title>
<path fill="none" stroke="#000000" d="M665.0057,-424.5467C704.6361,-421.6838 789.6078,-412.9312 800,-406 808.0096,-400.6579 814.4127,-392.7309 818.7789,-384.4754"/>
<polygon fill="#000000" stroke="#000000" points="822.0613,-385.7031 822.8201,-375.1354 815.6368,-382.9234 822.0613,-385.7031"/>
</g>
<!-- node_PickleStepMatched(2+)&#45;&gt;node_Executing -->
<g id="edge30" class="edge">
<title>node_PickleStepMatched(2+)-&gt;node_Executing</title>
<path fill="none" stroke="#000000" d="M647.3057,-421.9737C640.1577,-419.0188 627.2204,-413.9754 618,-406 608.029,-397.3754 600.1793,-385.0745 592.9395,-374.106"/>
<polygon fill="#000000" stroke="#000000" points="595.7434,-372.0046 587.2353,-365.6909 589.9492,-375.9323 595.7434,-372.0046"/>
</g>
<!-- node_AMBIGUOUS PickleStep -->
<g id="node16" class="node">
<title>node_AMBIGUOUS PickleStep</title>
<ellipse fill="none" stroke="#000000" cx="656" cy="-349" rx="27" ry="27"/>

</g>
<!-- node_PickleStepMatched(2+)&#45;&gt;node_AMBIGUOUS PickleStep -->
<g id="edge31" class="edge">
<title>node_PickleStepMatched(2+)-&gt;node_AMBIGUOUS PickleStep</title>
<path fill="none" stroke="#000000" d="M647.4341,-421.8102C648.2139,-415.1816 649.929,-400.6035 651.6212,-386.2198"/>
<polygon fill="#000000" stroke="#000000" points="655.1432,-386.2376 652.8356,-375.8971 648.1911,-385.4196 655.1432,-386.2376"/>
</g>
<!-- node_Start -->
<g id="node8" class="node">
<title>node_Start</title>
<polygon fill="#ff0000" stroke="#000000" points="828,-582 792,-582 792,-575 828,-575 828,-582"/>
</g>
<!-- node_Start&#45;&gt;node_Building Pickles -->
<g id="edge33" class="edge">
<title>node_Start-&gt;node_Building Pickles</title>
<path fill="none" stroke="#000000" d="M807.8296,-574.8102C803.5148,-567.4751 793.4739,-550.4056 784.1983,-534.6371"/>
<polygon fill="#000000" stroke="#000000" points="786.9614,-532.4313 778.8744,-525.5865 780.9279,-535.9805 786.9614,-532.4313"/>
</g>
<!-- node_Loading GlueCode -->
<g id="node20" class="node">
<title>node_Loading GlueCode</title>
<ellipse fill="none" stroke="#000000" cx="855" cy="-502" rx="27" ry="27"/>

</g>
<!-- node_Start&#45;&gt;node_Loading GlueCode -->
<g id="edge34" class="edge">
<title>node_Start-&gt;node_Loading GlueCode</title>
<path fill="none" stroke="#000000" d="M812.1704,-574.8102C816.4852,-567.4751 826.5261,-550.4056 835.8017,-534.6371"/>
<polygon fill="#000000" stroke="#000000" points="839.0721,-535.9805 841.1256,-525.5865 833.0386,-532.4313 839.0721,-535.9805"/>
</g>
<!-- node_TestStepFinished(FAILED) -->
<g id="node9" class="node">
<title>node_TestStepFinished(FAILED)</title>
<polygon fill="#000000" stroke="#000000" points="430,-123 394,-123 394,-116 430,-116 430,-123"/>
</g>
<!-- node_Idle Executors -->
<g id="node22" class="node">
<title>node_Idle Executors</title>
<ellipse fill="none" stroke="#000000" cx="394" cy="-43" rx="27" ry="27"/>
<circle fill="#000000" stroke="none" cx="400" cy="-39.53589838486225" r="4.800000000000001"/><circle fill="#000000" stroke="none" cx="388" cy="-39.53589838486225" r="4.800000000000001"/><circle fill="#000000" stroke="none" cx="394" cy="-49.92820323027551" r="4.800000000000001"/>
</g>
<!-- node_TestStepFinished(FAILED)&#45;&gt;node_Idle Executors -->
<g id="edge35" class="edge">
<title>node_TestStepFinished(FAILED)-&gt;node_Idle Executors</title>
<path fill="none" stroke="#000000" d="M411.1318,-115.8102C409.5456,-109.0688 406.0247,-94.1048 402.5848,-79.4854"/>
<polygon fill="#000000" stroke="#000000" points="405.9385,-78.457 400.2411,-69.5245 399.1246,-80.0604 405.9385,-78.457"/>
</g>
<!-- node_FAILED TestStep -->
<g id="node24" class="node">
<title>node_FAILED TestStep</title>
<ellipse fill="none" stroke="#000000" cx="486" cy="-43" rx="27" ry="27"/>

</g>
<!-- node_TestStepFinished(FAILED)&#45;&gt;node_FAILED TestStep -->
<g id="edge36" class="edge">
<title>node_TestStepFinished(FAILED)-&gt;node_FAILED TestStep</title>
<path fill="none" stroke="#000000" d="M423.5662,-115.8915C432.1768,-112.7572 443.8092,-107.5284 452,-100 459.1023,-93.4721 465.1955,-85.1179 470.1801,-76.8299"/>
<polygon fill="#000000" stroke="#000000" points="473.319,-78.3878 475.149,-67.9522 467.2107,-74.969 473.319,-78.3878"/>
</g>
<!-- node_TestStepFinished(PASSED) -->
<g id="node10" class="node">
<title>node_TestStepFinished(PASSED)</title>
<polygon fill="#000000" stroke="#000000" points="172,-123 136,-123 136,-116 172,-116 172,-123"/>
</g>
<!-- node_TestStepFinished(PASSED)&#45;&gt;node_Idle Executors -->
<g id="edge37" class="edge">
<title>node_TestStepFinished(PASSED)-&gt;node_Idle Executors</title>
<path fill="none" stroke="#000000" d="M159.9265,-115.9817C164.8485,-113.258 172.1309,-109.6763 179,-108 215.31,-99.1389 313.5831,-116.7407 347,-100 358.0868,-94.4459 367.5029,-84.9573 374.929,-75.2982"/>
<polygon fill="#000000" stroke="#000000" points="377.9873,-77.0372 380.9347,-66.8605 372.2844,-72.978 377.9873,-77.0372"/>
</g>
<!-- node_PASSED TestStep -->
<g id="node25" class="node">
<title>node_PASSED TestStep</title>
<ellipse fill="none" stroke="#000000" cx="154" cy="-43" rx="27" ry="27"/>

</g>
<!-- node_TestStepFinished(PASSED)&#45;&gt;node_PASSED TestStep -->
<g id="edge38" class="edge">
<title>node_TestStepFinished(PASSED)-&gt;node_PASSED TestStep</title>
<path fill="none" stroke="#000000" d="M154,-115.8102C154,-109.2297 154,-94.8144 154,-80.5326"/>
<polygon fill="#000000" stroke="#000000" points="157.5001,-80.2706 154,-70.2707 150.5001,-80.2707 157.5001,-80.2706"/>
</g>
<!-- node_TestStepFinished(PENDING) -->
<g id="node11" class="node">
<title>node_TestStepFinished(PENDING)</title>
<polygon fill="#000000" stroke="#000000" points="358,-123 322,-123 322,-116 358,-116 358,-123"/>
</g>
<!-- node_TestStepFinished(PENDING)&#45;&gt;node_Idle Executors -->
<g id="edge39" class="edge">
<title>node_TestStepFinished(PENDING)-&gt;node_Idle Executors</title>
<path fill="none" stroke="#000000" d="M342.6045,-115.8102C348.0226,-108.1347 360.9645,-89.8002 372.5051,-73.4511"/>
<polygon fill="#000000" stroke="#000000" points="375.4576,-75.3375 378.3651,-65.1494 369.7388,-71.3007 375.4576,-75.3375"/>
</g>
<!-- node_PENDING TestStep -->
<g id="node23" class="node">
<title>node_PENDING TestStep</title>
<ellipse fill="none" stroke="#000000" cx="303" cy="-43" rx="27" ry="27"/>

</g>
<!-- node_TestStepFinished(PENDING)&#45;&gt;node_PENDING TestStep -->
<g id="edge40" class="edge">
<title>node_TestStepFinished(PENDING)-&gt;node_PENDING TestStep</title>
<path fill="none" stroke="#000000" d="M338.2154,-115.8102C334.7487,-108.6425 326.7863,-92.1797 319.3084,-76.7187"/>
<polygon fill="#000000" stroke="#000000" points="322.2644,-74.7919 314.7595,-67.3135 315.9628,-77.8398 322.2644,-74.7919"/>
</g>
<!-- node_Building Pickles&#45;&gt;node_Execute -->
<g id="edge7" class="edge">
<title>node_Building Pickles-&gt;node_Execute</title>
<path fill="none" stroke="#000000" d="M771.1946,-475.673C774.0865,-463.3823 777.4078,-449.2667 779.7894,-439.1449"/>
<polygon fill="#000000" stroke="#000000" points="783.2529,-439.7063 782.1364,-429.1704 776.4389,-438.1029 783.2529,-439.7063"/>
</g>
<!-- node_Building Pickles&#45;&gt;node_PickleStep -->
<g id="edge8" class="edge">
<title>node_Building Pickles-&gt;node_PickleStep</title>
<path fill="none" stroke="#000000" d="M739.9482,-512.4454C713.4439,-526.9211 674.9423,-552.9542 658.2694,-567.6446"/>
<polygon fill="#000000" stroke="#000000" points="655.7415,-565.2235 651.2309,-574.8102 660.7353,-570.1288 655.7415,-565.2235"/>
</g>
<!-- node_UNKNOWN PickleStep&#45;&gt;node_PickleStepMatched(0) -->
<g id="edge21" class="edge">
<title>node_UNKNOWN PickleStep-&gt;node_PickleStepMatched(0)</title>
<path fill="none" stroke="#000000" d="M539.9617,-497.5272C513.0726,-492.0328 471.6593,-480.6479 442,-459 434.4384,-453.4809 428.1495,-445.0177 423.7706,-437.9788"/>
<polygon fill="#000000" stroke="#000000" points="426.7693,-436.1712 418.796,-429.1942 420.6781,-439.6205 426.7693,-436.1712"/>
</g>
<!-- node_UNKNOWN PickleStep&#45;&gt;node_PickleStepMatched(1) -->
<g id="edge22" class="edge">
<title>node_UNKNOWN PickleStep-&gt;node_PickleStepMatched(1)</title>
<path fill="none" stroke="#000000" d="M566.6446,-474.8136C566.4867,-462.735 566.3078,-449.0461 566.1786,-439.1606"/>
<polygon fill="#000000" stroke="#000000" points="569.6773,-439.0341 566.0468,-429.0808 562.6779,-439.1257 569.6773,-439.0341"/>
</g>
<!-- node_UNKNOWN PickleStep&#45;&gt;node_PickleStepMatched(2+) -->
<g id="edge23" class="edge">
<title>node_UNKNOWN PickleStep-&gt;node_PickleStepMatched(2+)</title>
<path fill="none" stroke="#000000" d="M586.7753,-483.0899C602.2642,-468.2786 623.2435,-448.2171 635.913,-436.102"/>
<polygon fill="#000000" stroke="#000000" points="638.3784,-438.5871 643.1869,-429.1463 633.5405,-433.5279 638.3784,-438.5871"/>
</g>
<!-- node_GlueCode loaded&#45;&gt;node_Execute -->
<g id="edge11" class="edge">
<title>node_GlueCode loaded-&gt;node_Execute</title>
<path fill="none" stroke="#000000" d="M796.1617,-367.6681C787.7346,-381.1843 780.3298,-399.1673 778.3243,-411.4705"/>
<polygon fill="#000000" stroke="#000000" points="774.8258,-411.8266 778.3723,-421.8102 781.8257,-411.7941 774.8258,-411.8266"/>
</g>
<!-- node_GlueCode loaded&#45;&gt;node_PickleStepMatched(1) -->
<g id="edge12" class="edge">
<title>node_GlueCode loaded-&gt;node_PickleStepMatched(1)</title>
<path fill="none" stroke="#000000" d="M795.7326,-367.0317C787.3541,-380.2965 778.3526,-397.4471 764,-406 745.7533,-416.8735 593.6496,-409.0233 573,-414 570.701,-414.5541 568.3563,-415.3239 566.1998,-416.2052"/>
<polygon fill="#000000" stroke="#000000" points="564.0709,-413.4121 557.5317,-421.7481 567.842,-419.3094 564.0709,-413.4121"/>
</g>
<!-- node_GlueCode loaded&#45;&gt;node_PickleStepMatched(2+) -->
<g id="edge13" class="edge">
<title>node_GlueCode loaded-&gt;node_PickleStepMatched(2+)</title>
<path fill="none" stroke="#000000" d="M795.4773,-366.6269C786.9615,-379.6741 777.8998,-396.7294 764,-406 756.3115,-411.128 707.8012,-417.2529 675.1947,-421.2521"/>
<polygon fill="#000000" stroke="#000000" points="674.739,-417.7817 665.2389,-422.4719 675.5903,-424.7297 674.739,-417.7817"/>
</g>
<!-- node_Executing&#45;&gt;node_PickleStepMatched(0) -->
<g id="edge14" class="edge">
<title>node_Executing-&gt;node_PickleStepMatched(0)</title>
<path fill="none" stroke="#000000" d="M545.1846,-366.5881C536.2359,-379.7963 526.5764,-397.0817 512,-406 495.2501,-416.248 442.9717,-408.9349 424,-414 421.7152,-414.61 419.3793,-415.4141 417.2275,-416.3144"/>
<polygon fill="#000000" stroke="#000000" points="415.1071,-413.5153 408.5554,-421.8415 418.8694,-419.4183 415.1071,-413.5153"/>
</g>
<!-- node_Executing&#45;&gt;node_PickleStepMatched(1) -->
<g id="edge15" class="edge">
<title>node_Executing-&gt;node_PickleStepMatched(1)</title>
<path fill="none" stroke="#000000" d="M553.3762,-372.9493C551.693,-386.0782 552.4349,-401.833 555.6022,-412.6468"/>
<polygon fill="#000000" stroke="#000000" points="552.4471,-414.1637 559.7806,-421.8102 558.8162,-411.2594 552.4471,-414.1637"/>
</g>
<!-- node_Executing&#45;&gt;node_PickleStepMatched(2+) -->
<g id="edge16" class="edge">
<title>node_Executing-&gt;node_PickleStepMatched(2+)</title>
<path fill="none" stroke="#000000" d="M560.7504,-375.6715C564.927,-386.2304 572.5008,-397.7835 582,-406 591.637,-414.3357 605.3343,-419.4685 618.6767,-422.3615"/>
<polygon fill="#000000" stroke="#000000" points="618.2787,-425.8456 628.7375,-424.1531 619.506,-418.954 618.2787,-425.8456"/>
</g>
<!-- node_Defined PickleStep&#45;&gt;node_CommandRunTestStep -->
<g id="edge1" class="edge">
<title>node_Defined PickleStep-&gt;node_CommandRunTestStep</title>
<path fill="none" stroke="#000000" d="M476,-321.8136C476,-309.735 476,-296.0461 476,-286.1606"/>
<polygon fill="#000000" stroke="#000000" points="479.5001,-286.0807 476,-276.0808 472.5001,-286.0808 479.5001,-286.0807"/>
</g>
<!-- node_Idle -->
<g id="node19" class="node">
<title>node_Idle</title>
<ellipse fill="none" stroke="#000000" cx="810" cy="-655" rx="27" ry="27"/>
<circle fill="#000000" stroke="none" cx="810" cy="-655" r="4.800000000000001"/>
</g>
<!-- node_Idle&#45;&gt;node_Start -->
<g id="edge32" class="edge">
<title>node_Idle-&gt;node_Start</title>
<path fill="none" stroke="#000000" d="M810,-627.8136C810,-615.735 810,-602.0461 810,-592.1606"/>
<polygon fill="#000000" stroke="#000000" points="813.5001,-592.0807 810,-582.0808 806.5001,-592.0808 813.5001,-592.0807"/>
</g>
<!-- node_Loading GlueCode&#45;&gt;node_GlueCode -->
<g id="edge17" class="edge">
<title>node_Loading GlueCode-&gt;node_GlueCode</title>
<path fill="none" stroke="#000000" d="M855,-474.8136C855,-462.735 855,-449.0461 855,-439.1606"/>
<polygon fill="#000000" stroke="#000000" points="858.5001,-439.0807 855,-429.0808 851.5001,-439.0808 858.5001,-439.0807"/>
</g>
<!-- node_Running TestStep&#45;&gt;node_TestStepFinished(FAILED) -->
<g id="edge4" class="edge">
<title>node_Running TestStep-&gt;node_TestStepFinished(FAILED)</title>
<path fill="none" stroke="#000000" d="M387.5888,-171.3738C393.6871,-158.415 400.9147,-143.0562 405.9151,-132.4303"/>
<polygon fill="#000000" stroke="#000000" points="409.217,-133.6336 410.3082,-123.0951 402.8833,-130.653 409.217,-133.6336"/>
</g>
<!-- node_Running TestStep&#45;&gt;node_TestStepFinished(PASSED) -->
<g id="edge5" class="edge">
<title>node_Running TestStep-&gt;node_TestStepFinished(PASSED)</title>
<path fill="none" stroke="#000000" d="M349.0442,-192.4907C301.9314,-185.9728 206.9573,-171.0104 179,-153 171.1302,-147.9302 164.8436,-139.4634 160.543,-132.3105"/>
<polygon fill="#000000" stroke="#000000" points="163.5276,-130.4705 155.71,-123.3195 157.3619,-133.7848 163.5276,-130.4705"/>
</g>
<!-- node_Running TestStep&#45;&gt;node_TestStepFinished(PENDING) -->
<g id="edge6" class="edge">
<title>node_Running TestStep-&gt;node_TestStepFinished(PENDING)</title>
<path fill="none" stroke="#000000" d="M364.4112,-171.3738C358.3129,-158.415 351.0853,-143.0562 346.0849,-132.4303"/>
<polygon fill="#000000" stroke="#000000" points="349.1167,-130.653 341.6918,-123.0951 342.783,-133.6336 349.1167,-130.653"/>
</g>
<!-- node_Idle Executors&#45;&gt;node_CommandRunTestStep -->
<g id="edge3" class="edge">
<title>node_Idle Executors-&gt;node_CommandRunTestStep</title>
<path fill="none" stroke="#000000" d="M407.5255,-66.7322C415.8107,-78.8936 427.5924,-92.6556 442,-100 464.0331,-111.2316 536.1531,-89.8952 553,-108 597.5759,-155.9042 519.2891,-234.2359 488.0364,-262.1884"/>
<polygon fill="#000000" stroke="#000000" points="485.5574,-259.7062 480.3196,-268.9157 490.1574,-264.9826 485.5574,-259.7062"/>
</g>
</g>
</svg>
