<?xml version="1.0" encoding="UTF-8" standalone="no"?>
<!DOCTYPE svg PUBLIC "-//W3C//DTD SVG 1.1//EN" "http://www.w3.org/Graphics/SVG/1.1/DTD/svg11.dtd">
<!-- Generated by graphviz version 2.40.1 (20161225.0304)
 -->
<!-- Title: PetriNet Pages: 1 -->
<svg xmlns="http://www.w3.org/2000/svg" xmlns:xlink="http://www.w3.org/1999/xlink" width="948pt" height="728pt" viewBox="0.00 0.00 948.00 728.00">
<g id="graph0" class="graph" transform="scale(1 1) rotate(0) translate(4 724)">
<title>PetriNet</title>
<polygon fill="#ffffff" stroke="transparent" points="-4,4 -4,-724 944,-724 944,4 -4,4"/>
<g id="clust1" class="cluster">
<title>cluster_transition_PickleStep</title>

<text text-anchor="middle" x="656.9414" y="-596.8" font-family="Times,serif" font-size="14.00" fill="#000000">PickleStep</text>
</g>
<g id="clust2" class="cluster">
<title>cluster_transition_PickleStepMatched(2+)</title>

<text text-anchor="middle" x="667.541" y="-443.8" font-family="Times,serif" font-size="14.00" fill="#000000">PickleStepMatched(2+)</text>
</g>
<g id="clust3" class="cluster">
<title>cluster_transition_PickleStepMatched(0)</title>

<text text-anchor="middle" x="365.5933" y="-443.8" font-family="Times,serif" font-size="14.00" fill="#000000">PickleStepMatched(0)</text>
</g>
<g id="clust4" class="cluster">
<title>cluster_transition_PickleStepMatched(1)</title>

<text text-anchor="middle" x="514.5933" y="-443.8" font-family="Times,serif" font-size="14.00" fill="#000000">PickleStepMatched(1)</text>
</g>
<g id="clust5" class="cluster">
<title>cluster_transition_Execute</title>

<text text-anchor="middle" x="780.5415" y="-443.8" font-family="Times,serif" font-size="14.00" fill="#000000">Execute</text>
</g>
<g id="clust6" class="cluster">
<title>cluster_transition_Start</title>

<text text-anchor="middle" x="798.2207" y="-596.8" font-family="Times,serif" font-size="14.00" fill="#000000">Start</text>
</g>
<g id="clust7" class="cluster">
<title>cluster_transition_TestStepFinished(PENDING)</title>

<text text-anchor="middle" x="457.5044" y="-137.8" font-family="Times,serif" font-size="14.00" fill="#000000">TestStepFinished(PENDING)</text>
</g>
<g id="clust8" class="cluster">
<title>cluster_transition_GlueCode</title>

<text text-anchor="middle" x="856.3828" y="-443.8" font-family="Times,serif" font-size="14.00" fill="#000000">GlueCode</text>
</g>
<g id="clust9" class="cluster">
<title>cluster_transition_TestStepFinished(FAILED)</title>

<text text-anchor="middle" x="93.1538" y="-137.8" font-family="Times,serif" font-size="14.00" fill="#000000">TestStepFinished(FAILED)</text>
</g>
<g id="clust10" class="cluster">
<title>cluster_transition_TestStepFinished(PASSED)</title>

<text text-anchor="middle" x="272.2065" y="-137.8" font-family="Times,serif" font-size="14.00" fill="#000000">TestStepFinished(PASSED)</text>
</g>
<g id="clust11" class="cluster">
<title>cluster_transition_CommandRunTestStep</title>

<text text-anchor="middle" x="469.8423" y="-290.8" font-family="Times,serif" font-size="14.00" fill="#000000">CommandRunTestStep</text>
</g>
<g id="clust12" class="cluster">
<title>cluster_place_Building Pickles</title>

<text text-anchor="middle" x="742.4741" y="-543.8" font-family="Times,serif" font-size="14.00" fill="#000000">Building Pickles</text>
</g>
<g id="clust13" class="cluster">
<title>cluster_place_UNKNOWN PickleStep</title>

<text text-anchor="middle" x="581.6294" y="-543.8" font-family="Times,serif" font-size="14.00" fill="#000000">UNKNOWN PickleStep</text>
</g>
<g id="clust14" class="cluster">
<title>cluster_place_GlueCode loaded</title>

<text text-anchor="middle" x="830.7915" y="-390.8" font-family="Times,serif" font-size="14.00" fill="#000000">GlueCode loaded</text>
</g>
<g id="clust15" class="cluster">
<title>cluster_place_Executing</title>

<text text-anchor="middle" x="558.3794" y="-390.8" font-family="Times,serif" font-size="14.00" fill="#000000">Executing</text>
</g>
<g id="clust16" class="cluster">
<title>cluster_place_AMBIGUOUS PickleStep</title>

<text text-anchor="middle" x="684.0845" y="-390.8" font-family="Times,serif" font-size="14.00" fill="#000000">AMBIGUOUS PickleStep</text>
</g>
<g id="clust17" class="cluster">
<title>cluster_place_UNDEFINED PickleStep</title>

<text text-anchor="middle" x="303.7432" y="-390.8" font-family="Times,serif" font-size="14.00" fill="#000000">UNDEFINED PickleStep</text>
</g>
<g id="clust18" class="cluster">
<title>cluster_place_Defined PickleStep</title>

<text text-anchor="middle" x="452.8535" y="-390.8" font-family="Times,serif" font-size="14.00" fill="#000000">Defined PickleStep</text>
</g>
<g id="clust19" class="cluster">
<title>cluster_place_Idle</title>

<text text-anchor="middle" x="786.8828" y="-696.8" font-family="Times,serif" font-size="14.00" fill="#000000">Idle</text>
</g>
<g id="clust20" class="cluster">
<title>cluster_place_Loading GlueCode</title>

<text text-anchor="middle" x="871.4604" y="-543.8" font-family="Times,serif" font-size="14.00" fill="#000000">Loading GlueCode</text>
</g>
<g id="clust21" class="cluster">
<title>cluster_place_Running TestStep</title>

<text text-anchor="middle" x="362.7485" y="-237.8" font-family="Times,serif" font-size="14.00" fill="#000000">Running TestStep</text>
</g>
<g id="clust22" class="cluster">
<title>cluster_place_Idle Executors</title>

<text text-anchor="middle" x="391.6226" y="-84.8" font-family="Times,serif" font-size="14.00" fill="#000000">Idle Executors</text>
</g>
<g id="clust23" class="cluster">
<title>cluster_place_PENDING TestStep</title>

<text text-anchor="middle" x="512.3555" y="-84.8" font-family="Times,serif" font-size="14.00" fill="#000000">PENDING TestStep</text>
</g>
<g id="clust24" class="cluster">
<title>cluster_place_FAILED TestStep</title>

<text text-anchor="middle" x="136.0049" y="-84.8" font-family="Times,serif" font-size="14.00" fill="#000000">FAILED TestStep</text>
</g>
<g id="clust25" class="cluster">
<title>cluster_place_PASSED TestStep</title>

<text text-anchor="middle" x="276.0576" y="-84.8" font-family="Times,serif" font-size="14.00" fill="#000000">PASSED TestStep</text>
</g>
<!-- node_PickleStep -->
<g id="node1" class="node">
<title>node_PickleStep</title>
<polygon fill="#ff0000" stroke="#000000" points="674,-582 638,-582 638,-575 674,-575 674,-582"/>
</g>
<!-- node_Building Pickles -->
<g id="node12" class="node">
<title>node_Building Pickles</title>
<ellipse fill="none" stroke="#000000" cx="758" cy="-502" rx="27" ry="27"/>
<circle fill="#000000" stroke="none" cx="758" cy="-502" r="4.800000000000001"/>
</g>
<!-- node_PickleStep&#45;&gt;node_Building Pickles -->
<g id="edge3" class="edge">
<title>node_PickleStep-&gt;node_Building Pickles</title>
<path fill="none" stroke="#000000" d="M667.139,-574.8102C683.8276,-566.8003 712.274,-547.1826 733.3188,-530.3268"/>
<polygon fill="#000000" stroke="#000000" points="735.7625,-532.8487 741.2634,-523.7939 731.3164,-527.442 735.7625,-532.8487"/>
</g>
<!-- node_UNKNOWN PickleStep -->
<g id="node13" class="node">
<title>node_UNKNOWN PickleStep</title>
<ellipse fill="none" stroke="#000000" cx="581" cy="-502" rx="27" ry="27"/>

</g>
<!-- node_PickleStep&#45;&gt;node_UNKNOWN PickleStep -->
<g id="edge4" class="edge">
<title>node_PickleStep-&gt;node_UNKNOWN PickleStep</title>
<path fill="none" stroke="#000000" d="M652.3826,-574.8102C644.3135,-566.5797 624.2287,-546.0933 607.4126,-528.9408"/>
<polygon fill="#000000" stroke="#000000" points="609.4711,-526.041 599.9711,-521.3505 604.4726,-530.9415 609.4711,-526.041"/>
</g>
<!-- node_PickleStepMatched(2+) -->
<g id="node2" class="node">
<title>node_PickleStepMatched(2+)</title>
<polygon fill="#000000" stroke="#000000" points="658,-429 622,-429 622,-422 658,-422 658,-429"/>
</g>
<!-- node_GlueCode loaded -->
<g id="node14" class="node">
<title>node_GlueCode loaded</title>
<ellipse fill="none" stroke="#000000" cx="809" cy="-349" rx="27" ry="27"/>

</g>
<!-- node_PickleStepMatched(2+)&#45;&gt;node_GlueCode loaded -->
<g id="edge8" class="edge">
<title>node_PickleStepMatched(2+)-&gt;node_GlueCode loaded</title>
<path fill="none" stroke="#000000" d="M658.0057,-424.5467C697.6361,-421.6838 782.6078,-412.9312 793,-406 801.0096,-400.6579 807.4127,-392.7309 811.7789,-384.4754"/>
<polygon fill="#000000" stroke="#000000" points="815.0613,-385.7031 815.8201,-375.1354 808.6368,-382.9234 815.0613,-385.7031"/>
</g>
<!-- node_Executing -->
<g id="node15" class="node">
<title>node_Executing</title>
<ellipse fill="none" stroke="#000000" cx="559" cy="-349" rx="27" ry="27"/>

</g>
<!-- node_PickleStepMatched(2+)&#45;&gt;node_Executing -->
<g id="edge9" class="edge">
<title>node_PickleStepMatched(2+)-&gt;node_Executing</title>
<path fill="none" stroke="#000000" d="M640.3057,-421.9737C633.1577,-419.0188 620.2204,-413.9754 611,-406 601.029,-397.3754 593.1793,-385.0745 585.9395,-374.106"/>
<polygon fill="#000000" stroke="#000000" points="588.7434,-372.0046 580.2353,-365.6909 582.9492,-375.9323 588.7434,-372.0046"/>
</g>
<!-- node_AMBIGUOUS PickleStep -->
<g id="node16" class="node">
<title>node_AMBIGUOUS PickleStep</title>
<ellipse fill="none" stroke="#000000" cx="649" cy="-349" rx="27" ry="27"/>

</g>
<!-- node_PickleStepMatched(2+)&#45;&gt;node_AMBIGUOUS PickleStep -->
<g id="edge10" class="edge">
<title>node_PickleStepMatched(2+)-&gt;node_AMBIGUOUS PickleStep</title>
<path fill="none" stroke="#000000" d="M640.4341,-421.8102C641.2139,-415.1816 642.929,-400.6035 644.6212,-386.2198"/>
<polygon fill="#000000" stroke="#000000" points="648.1432,-386.2376 645.8356,-375.8971 641.1911,-385.4196 648.1432,-386.2376"/>
</g>
<!-- node_PickleStepMatched(0) -->
<g id="node3" class="node">
<title>node_PickleStepMatched(0)</title>
<polygon fill="#000000" stroke="#000000" points="428,-429 392,-429 392,-422 428,-422 428,-429"/>
</g>
<!-- node_PickleStepMatched(0)&#45;&gt;node_Executing -->
<g id="edge17" class="edge">
<title>node_PickleStepMatched(0)-&gt;node_Executing</title>
<path fill="none" stroke="#000000" d="M428.0507,-422.7946C437.4974,-420.0713 445.5224,-415.9964 453,-414 471.9717,-408.9349 524.2501,-416.248 541,-406 549.4317,-400.8413 556.2181,-392.8829 560.881,-384.5334"/>
<polygon fill="#000000" stroke="#000000" points="564.0682,-385.9799 565.0846,-375.4339 557.7134,-383.0442 564.0682,-385.9799"/>
</g>
<!-- node_UNDEFINED PickleStep -->
<g id="node17" class="node">
<title>node_UNDEFINED PickleStep</title>
<ellipse fill="none" stroke="#000000" cx="348" cy="-349" rx="27" ry="27"/>

</g>
<!-- node_PickleStepMatched(0)&#45;&gt;node_UNDEFINED PickleStep -->
<g id="edge18" class="edge">
<title>node_PickleStepMatched(0)-&gt;node_UNDEFINED PickleStep</title>
<path fill="none" stroke="#000000" d="M403.4045,-421.993C397.3195,-418.5229 388.3002,-412.7607 382,-406 375.4811,-399.0046 369.6159,-390.555 364.6655,-382.329"/>
<polygon fill="#000000" stroke="#000000" points="367.6626,-380.5193 359.6652,-373.5701 361.5835,-383.9898 367.6626,-380.5193"/>
</g>
<!-- node_PickleStepMatched(1) -->
<g id="node4" class="node">
<title>node_PickleStepMatched(1)</title>
<polygon fill="#000000" stroke="#000000" points="577,-429 541,-429 541,-422 577,-422 577,-429"/>
</g>
<!-- node_PickleStepMatched(1)&#45;&gt;node_GlueCode loaded -->
<g id="edge19" class="edge">
<title>node_PickleStepMatched(1)-&gt;node_GlueCode loaded</title>
<path fill="none" stroke="#000000" d="M577.0319,-422.7206C586.4632,-419.9369 594.4759,-415.8134 602,-414 622.6496,-409.0233 774.7533,-416.8735 793,-406 801.5048,-400.9318 808.1307,-392.8448 812.5004,-384.3362"/>
<polygon fill="#000000" stroke="#000000" points="815.7489,-385.6394 816.3385,-375.0609 809.2808,-382.9628 815.7489,-385.6394"/>
</g>
<!-- node_PickleStepMatched(1)&#45;&gt;node_Executing -->
<g id="edge20" class="edge">
<title>node_PickleStepMatched(1)-&gt;node_Executing</title>
<path fill="none" stroke="#000000" d="M565.2194,-421.8102C570.5311,-414.7293 572.9364,-398.5768 572.4352,-383.2804"/>
<polygon fill="#000000" stroke="#000000" points="575.8961,-382.6446 571.6238,-372.9493 568.9176,-383.1927 575.8961,-382.6446"/>
</g>
<!-- node_Defined PickleStep -->
<g id="node18" class="node">
<title>node_Defined PickleStep</title>
<ellipse fill="none" stroke="#000000" cx="469" cy="-349" rx="27" ry="27"/>

</g>
<!-- node_PickleStepMatched(1)&#45;&gt;node_Defined PickleStep -->
<g id="edge21" class="edge">
<title>node_PickleStepMatched(1)-&gt;node_Defined PickleStep</title>
<path fill="none" stroke="#000000" d="M545.9685,-421.9501C536.2076,-418.8465 522.8891,-413.6303 513,-406 503.9067,-398.9837 495.6732,-389.6619 488.8535,-380.5932"/>
<polygon fill="#000000" stroke="#000000" points="491.6663,-378.5095 483.0039,-372.4093 485.9715,-382.58 491.6663,-378.5095"/>
</g>
<!-- node_Execute -->
<g id="node5" class="node">
<title>node_Execute</title>
<polygon fill="#000000" stroke="#000000" points="794,-429 758,-429 758,-422 794,-422 794,-429"/>
</g>
<!-- node_Execute&#45;&gt;node_GlueCode loaded -->
<g id="edge23" class="edge">
<title>node_Execute-&gt;node_GlueCode loaded</title>
<path fill="none" stroke="#000000" d="M783.811,-421.8102C791.7371,-415.1019 800.5667,-400.2516 806.6584,-385.7008"/>
<polygon fill="#000000" stroke="#000000" points="809.9612,-386.8621 810.2292,-376.2707 803.4148,-384.3832 809.9612,-386.8621"/>
</g>
<!-- node_Execute&#45;&gt;node_Executing -->
<g id="edge24" class="edge">
<title>node_Execute-&gt;node_Executing</title>
<path fill="none" stroke="#000000" d="M770.0721,-421.9872C765.1493,-419.2667 757.8665,-415.6866 751,-414 733.9294,-409.8069 608.0608,-415.0643 593,-406 584.3538,-400.7964 577.6443,-392.4821 572.5582,-383.7946"/>
<polygon fill="#000000" stroke="#000000" points="575.5559,-381.9734 567.8325,-374.7209 569.3475,-385.2069 575.5559,-381.9734"/>
</g>
<!-- node_Start -->
<g id="node6" class="node">
<title>node_Start</title>
<polygon fill="#000000" stroke="#000000" points="821,-582 785,-582 785,-575 821,-575 821,-582"/>
</g>
<!-- node_Start&#45;&gt;node_Building Pickles -->
<g id="edge26" class="edge">
<title>node_Start-&gt;node_Building Pickles</title>
<path fill="none" stroke="#000000" d="M800.8296,-574.8102C796.5148,-567.4751 786.4739,-550.4056 777.1983,-534.6371"/>
<polygon fill="#000000" stroke="#000000" points="779.9614,-532.4313 771.8744,-525.5865 773.9279,-535.9805 779.9614,-532.4313"/>
</g>
<!-- node_Loading GlueCode -->
<g id="node20" class="node">
<title>node_Loading GlueCode</title>
<ellipse fill="none" stroke="#000000" cx="848" cy="-502" rx="27" ry="27"/>
<circle fill="#000000" stroke="none" cx="848" cy="-502" r="4.800000000000001"/>
</g>
<!-- node_Start&#45;&gt;node_Loading GlueCode -->
<g id="edge27" class="edge">
<title>node_Start-&gt;node_Loading GlueCode</title>
<path fill="none" stroke="#000000" d="M805.1704,-574.8102C809.4852,-567.4751 819.5261,-550.4056 828.8017,-534.6371"/>
<polygon fill="#000000" stroke="#000000" points="832.0721,-535.9805 834.1256,-525.5865 826.0386,-532.4313 832.0721,-535.9805"/>
</g>
<!-- node_TestStepFinished(PENDING) -->
<g id="node7" class="node">
<title>node_TestStepFinished(PENDING)</title>
<polygon fill="#000000" stroke="#000000" points="416,-123 380,-123 380,-116 416,-116 416,-123"/>
</g>
<!-- node_Idle Executors -->
<g id="node22" class="node">
<title>node_Idle Executors</title>
<ellipse fill="none" stroke="#000000" cx="391" cy="-43" rx="27" ry="27"/>
<circle fill="#000000" stroke="none" cx="397" cy="-39.53589838486225" r="4.800000000000001"/><circle fill="#000000" stroke="none" cx="385" cy="-39.53589838486225" r="4.800000000000001"/><circle fill="#000000" stroke="none" cx="391" cy="-49.92820323027551" r="4.800000000000001"/>
</g>
<!-- node_TestStepFinished(PENDING)&#45;&gt;node_Idle Executors -->
<g id="edge32" class="edge">
<title>node_TestStepFinished(PENDING)-&gt;node_Idle Executors</title>
<path fill="none" stroke="#000000" d="M397.6624,-115.8102C397.0558,-109.1816 395.7219,-94.6035 394.4057,-80.2198"/>
<polygon fill="#000000" stroke="#000000" points="397.8579,-79.5365 393.4612,-69.8971 390.887,-80.1744 397.8579,-79.5365"/>
</g>
<!-- node_PENDING TestStep -->
<g id="node23" class="node">
<title>node_PENDING TestStep</title>
<ellipse fill="none" stroke="#000000" cx="483" cy="-43" rx="27" ry="27"/>

</g>
<!-- node_TestStepFinished(PENDING)&#45;&gt;node_PENDING TestStep -->
<g id="edge33" class="edge">
<title>node_TestStepFinished(PENDING)-&gt;node_PENDING TestStep</title>
<path fill="none" stroke="#000000" d="M415.5638,-115.8744C426.1623,-112.9849 439.4224,-108.0521 449,-100 456.4486,-93.7378 462.6829,-85.404 467.6935,-77.047"/>
<polygon fill="#000000" stroke="#000000" points="470.8821,-78.5128 472.6498,-68.0664 464.7535,-75.1304 470.8821,-78.5128"/>
</g>
<!-- node_GlueCode -->
<g id="node8" class="node">
<title>node_GlueCode</title>
<polygon fill="#ff0000" stroke="#000000" points="866,-429 830,-429 830,-422 866,-422 866,-429"/>
</g>
<!-- node_GlueCode&#45;&gt;node_GlueCode loaded -->
<g id="edge35" class="edge">
<title>node_GlueCode-&gt;node_GlueCode loaded</title>
<path fill="none" stroke="#000000" d="M846.1189,-421.8102C842.4304,-414.5749 833.9133,-397.8683 825.967,-382.2814"/>
<polygon fill="#000000" stroke="#000000" points="829.0552,-380.6329 821.3951,-373.3135 822.8189,-383.8122 829.0552,-380.6329"/>
</g>
<!-- node_TestStepFinished(FAILED) -->
<g id="node9" class="node">
<title>node_TestStepFinished(FAILED)</title>
<polygon fill="#000000" stroke="#000000" points="170,-123 134,-123 134,-116 170,-116 170,-123"/>
</g>
<!-- node_TestStepFinished(FAILED)&#45;&gt;node_Idle Executors -->
<g id="edge36" class="edge">
<title>node_TestStepFinished(FAILED)-&gt;node_Idle Executors</title>
<path fill="none" stroke="#000000" d="M157.9266,-115.9823C162.8487,-113.2588 170.1312,-109.6773 177,-108 213.0932,-99.1864 310.784,-116.646 344,-100 355.086,-94.4443 364.502,-84.9554 371.9281,-75.2963"/>
<polygon fill="#000000" stroke="#000000" points="374.9863,-77.0355 377.9339,-66.8589 369.2834,-72.9762 374.9863,-77.0355"/>
</g>
<!-- node_FAILED TestStep -->
<g id="node24" class="node">
<title>node_FAILED TestStep</title>
<ellipse fill="none" stroke="#000000" cx="152" cy="-43" rx="27" ry="27"/>

</g>
<!-- node_TestStepFinished(FAILED)&#45;&gt;node_FAILED TestStep -->
<g id="edge37" class="edge">
<title>node_TestStepFinished(FAILED)-&gt;node_FAILED TestStep</title>
<path fill="none" stroke="#000000" d="M152,-115.8102C152,-109.2297 152,-94.8144 152,-80.5326"/>
<polygon fill="#000000" stroke="#000000" points="155.5001,-80.2706 152,-70.2707 148.5001,-80.2707 155.5001,-80.2706"/>
</g>
<!-- node_TestStepFinished(PASSED) -->
<g id="node10" class="node">
<title>node_TestStepFinished(PASSED)</title>
<polygon fill="#000000" stroke="#000000" points="344,-123 308,-123 308,-116 344,-116 344,-123"/>
</g>
<!-- node_TestStepFinished(PASSED)&#45;&gt;node_Idle Executors -->
<g id="edge38" class="edge">
<title>node_TestStepFinished(PASSED)-&gt;node_Idle Executors</title>
<path fill="none" stroke="#000000" d="M329.3784,-115.9606C333.0421,-112.0947 339.0321,-105.6931 344,-100 351.8124,-91.0472 360.1254,-81.1096 367.5537,-72.0723"/>
<polygon fill="#000000" stroke="#000000" points="370.4678,-74.0375 374.0871,-64.08 365.0482,-69.6072 370.4678,-74.0375"/>
</g>
<!-- node_PASSED TestStep -->
<g id="node25" class="node">
<title>node_PASSED TestStep</title>
<ellipse fill="none" stroke="#000000" cx="300" cy="-43" rx="27" ry="27"/>

</g>
<!-- node_TestStepFinished(PASSED)&#45;&gt;node_PASSED TestStep -->
<g id="edge39" class="edge">
<title>node_TestStepFinished(PASSED)-&gt;node_PASSED TestStep</title>
<path fill="none" stroke="#000000" d="M324.746,-115.8102C322.3994,-108.906 317.1218,-93.3775 312.0406,-78.4273"/>
<polygon fill="#000000" stroke="#000000" points="315.2946,-77.1246 308.7628,-68.7828 308.6669,-79.3772 315.2946,-77.1246"/>
</g>
<!-- node_CommandRunTestStep -->
<g id="node11" class="node">
<title>node_CommandRunTestStep</title>
<polygon fill="#000000" stroke="#000000" points="487,-276 451,-276 451,-269 487,-269 487,-276"/>
</g>
<!-- node_Running TestStep -->
<g id="node21" class="node">
<title>node_Running TestStep</title>
<ellipse fill="none" stroke="#000000" cx="362" cy="-196" rx="27" ry="27"/>

</g>
<!-- node_CommandRunTestStep&#45;&gt;node_Running TestStep -->
<g id="edge40" class="edge">
<title>node_CommandRunTestStep-&gt;node_Running TestStep</title>
<path fill="none" stroke="#000000" d="M463.8392,-268.8102C451.1623,-259.7468 417.6981,-235.8215 392.5644,-217.8521"/>
<polygon fill="#000000" stroke="#000000" points="394.5726,-214.9854 384.4022,-212.0165 390.5014,-220.6797 394.5726,-214.9854"/>
</g>
<!-- node_Building Pickles&#45;&gt;node_PickleStep -->
<g id="edge1" class="edge">
<title>node_Building Pickles-&gt;node_PickleStep</title>
<path fill="none" stroke="#000000" d="M733.2738,-513.1468C709.3153,-527.5139 676.1243,-552.3731 661.4149,-566.9387"/>
<polygon fill="#000000" stroke="#000000" points="658.5273,-564.9307 654.7003,-574.8102 663.853,-569.4736 658.5273,-564.9307"/>
</g>
<!-- node_Building Pickles&#45;&gt;node_Execute -->
<g id="edge2" class="edge">
<title>node_Building Pickles-&gt;node_Execute</title>
<path fill="none" stroke="#000000" d="M764.1946,-475.673C767.0865,-463.3823 770.4078,-449.2667 772.7894,-439.1449"/>
<polygon fill="#000000" stroke="#000000" points="776.2529,-439.7063 775.1364,-429.1704 769.4389,-438.1029 776.2529,-439.7063"/>
</g>
<!-- node_UNKNOWN PickleStep&#45;&gt;node_PickleStepMatched(2+) -->
<g id="edge5" class="edge">
<title>node_UNKNOWN PickleStep-&gt;node_PickleStepMatched(2+)</title>
<path fill="none" stroke="#000000" d="M597.7492,-480.2828C608.4999,-466.3433 622.0482,-448.7764 630.8618,-437.3486"/>
<polygon fill="#000000" stroke="#000000" points="633.8633,-439.1879 637.1989,-429.1319 628.3203,-434.9129 633.8633,-439.1879"/>
</g>
<!-- node_UNKNOWN PickleStep&#45;&gt;node_PickleStepMatched(0) -->
<g id="edge6" class="edge">
<title>node_UNKNOWN PickleStep-&gt;node_PickleStepMatched(0)</title>
<path fill="none" stroke="#000000" d="M554.0208,-499.2399C522.9261,-494.9534 471.4351,-484.3598 435,-459 427.3165,-453.652 421.0285,-445.1875 416.6806,-438.1052"/>
<polygon fill="#000000" stroke="#000000" points="419.6747,-436.2875 411.762,-429.2419 413.554,-439.6841 419.6747,-436.2875"/>
</g>
<!-- node_UNKNOWN PickleStep&#45;&gt;node_PickleStepMatched(1) -->
<g id="edge7" class="edge">
<title>node_UNKNOWN PickleStep-&gt;node_PickleStepMatched(1)</title>
<path fill="none" stroke="#000000" d="M573.4288,-475.673C569.8554,-463.2472 565.7456,-448.9562 562.8285,-438.8126"/>
<polygon fill="#000000" stroke="#000000" points="566.1831,-437.8136 560.0555,-429.1704 559.4557,-439.7483 566.1831,-437.8136"/>
</g>
<!-- node_GlueCode loaded&#45;&gt;node_PickleStepMatched(2+) -->
<g id="edge11" class="edge">
<title>node_GlueCode loaded-&gt;node_PickleStepMatched(2+)</title>
<path fill="none" stroke="#000000" d="M788.4773,-366.6269C779.9615,-379.6741 770.8998,-396.7294 757,-406 749.3115,-411.128 700.8012,-417.2529 668.1947,-421.2521"/>
<polygon fill="#000000" stroke="#000000" points="667.739,-417.7817 658.2389,-422.4719 668.5903,-424.7297 667.739,-417.7817"/>
</g>
<!-- node_GlueCode loaded&#45;&gt;node_PickleStepMatched(1) -->
<g id="edge12" class="edge">
<title>node_GlueCode loaded-&gt;node_PickleStepMatched(1)</title>
<path fill="none" stroke="#000000" d="M788.7326,-367.0317C780.3541,-380.2965 771.3526,-397.4471 757,-406 738.7533,-416.8735 586.6496,-409.0233 566,-414 563.701,-414.5541 561.3563,-415.3239 559.1998,-416.2052"/>
<polygon fill="#000000" stroke="#000000" points="557.0709,-413.4121 550.5317,-421.7481 560.842,-419.3094 557.0709,-413.4121"/>
</g>
<!-- node_GlueCode loaded&#45;&gt;node_Execute -->
<g id="edge13" class="edge">
<title>node_GlueCode loaded-&gt;node_Execute</title>
<path fill="none" stroke="#000000" d="M789.1617,-367.6681C780.7346,-381.1843 773.3298,-399.1673 771.3243,-411.4705"/>
<polygon fill="#000000" stroke="#000000" points="767.8258,-411.8266 771.3723,-421.8102 774.8257,-411.7941 767.8258,-411.8266"/>
</g>
<!-- node_Executing&#45;&gt;node_PickleStepMatched(2+) -->
<g id="edge14" class="edge">
<title>node_Executing-&gt;node_PickleStepMatched(2+)</title>
<path fill="none" stroke="#000000" d="M553.7504,-375.6715C557.927,-386.2304 565.5008,-397.7835 575,-406 584.637,-414.3357 598.3343,-419.4685 611.6767,-422.3615"/>
<polygon fill="#000000" stroke="#000000" points="611.2787,-425.8456 621.7375,-424.1531 612.506,-418.954 611.2787,-425.8456"/>
</g>
<!-- node_Executing&#45;&gt;node_PickleStepMatched(0) -->
<g id="edge15" class="edge">
<title>node_Executing-&gt;node_PickleStepMatched(0)</title>
<path fill="none" stroke="#000000" d="M538.1846,-366.5881C529.2359,-379.7963 519.5764,-397.0817 505,-406 488.2501,-416.248 435.9717,-408.9349 417,-414 414.7152,-414.61 412.3793,-415.4141 410.2275,-416.3144"/>
<polygon fill="#000000" stroke="#000000" points="408.1071,-413.5153 401.5554,-421.8415 411.8694,-419.4183 408.1071,-413.5153"/>
</g>
<!-- node_Executing&#45;&gt;node_PickleStepMatched(1) -->
<g id="edge16" class="edge">
<title>node_Executing-&gt;node_PickleStepMatched(1)</title>
<path fill="none" stroke="#000000" d="M546.3762,-372.9493C544.693,-386.0782 545.4349,-401.833 548.6022,-412.6468"/>
<polygon fill="#000000" stroke="#000000" points="545.4471,-414.1637 552.7806,-421.8102 551.8162,-411.2594 545.4471,-414.1637"/>
</g>
<!-- node_Defined PickleStep&#45;&gt;node_CommandRunTestStep -->
<g id="edge22" class="edge">
<title>node_Defined PickleStep-&gt;node_CommandRunTestStep</title>
<path fill="none" stroke="#000000" d="M469,-321.8136C469,-309.735 469,-296.0461 469,-286.1606"/>
<polygon fill="#000000" stroke="#000000" points="472.5001,-286.0807 469,-276.0808 465.5001,-286.0808 472.5001,-286.0807"/>
</g>
<!-- node_Idle -->
<g id="node19" class="node">
<title>node_Idle</title>
<ellipse fill="none" stroke="#000000" cx="803" cy="-655" rx="27" ry="27"/>

</g>
<!-- node_Idle&#45;&gt;node_Start -->
<g id="edge25" class="edge">
<title>node_Idle-&gt;node_Start</title>
<path fill="none" stroke="#000000" d="M803,-627.8136C803,-615.735 803,-602.0461 803,-592.1606"/>
<polygon fill="#000000" stroke="#000000" points="806.5001,-592.0807 803,-582.0808 799.5001,-592.0808 806.5001,-592.0807"/>
</g>
<!-- node_Loading GlueCode&#45;&gt;node_GlueCode -->
<g id="edge28" class="edge">
<title>node_Loading GlueCode-&gt;node_GlueCode</title>
<path fill="none" stroke="#000000" d="M848,-474.8136C848,-462.735 848,-449.0461 848,-439.1606"/>
<polygon fill="#000000" stroke="#000000" points="851.5001,-439.0807 848,-429.0808 844.5001,-439.0808 851.5001,-439.0807"/>
</g>
<!-- node_Running TestStep&#45;&gt;node_TestStepFinished(PENDING) -->
<g id="edge29" class="edge">
<title>node_Running TestStep-&gt;node_TestStepFinished(PENDING)</title>
<path fill="none" stroke="#000000" d="M373.5888,-171.3738C379.6871,-158.415 386.9147,-143.0562 391.9151,-132.4303"/>
<polygon fill="#000000" stroke="#000000" points="395.217,-133.6336 396.3082,-123.0951 388.8833,-130.653 395.217,-133.6336"/>
</g>
<!-- node_Running TestStep&#45;&gt;node_TestStepFinished(FAILED) -->
<g id="edge30" class="edge">
<title>node_Running TestStep-&gt;node_TestStepFinished(FAILED)</title>
<path fill="none" stroke="#000000" d="M335.2669,-192.1002C290.5541,-185.2009 202.9432,-169.9613 177,-153 169.1645,-147.8773 162.8777,-139.4109 158.5684,-132.2715"/>
<polygon fill="#000000" stroke="#000000" points="161.555,-130.4362 153.7196,-123.3048 155.3976,-133.7659 161.555,-130.4362"/>
</g>
<!-- node_Running TestStep&#45;&gt;node_TestStepFinished(PASSED) -->
<g id="edge31" class="edge">
<title>node_Running TestStep-&gt;node_TestStepFinished(PASSED)</title>
<path fill="none" stroke="#000000" d="M350.4112,-171.3738C344.3129,-158.415 337.0853,-143.0562 332.0849,-132.4303"/>
<polygon fill="#000000" stroke="#000000" points="335.1167,-130.653 327.6918,-123.0951 328.783,-133.6336 335.1167,-130.653"/>
</g>
<!-- node_Idle Executors&#45;&gt;node_CommandRunTestStep -->
<g id="edge34" class="edge">
<title>node_Idle Executors-&gt;node_CommandRunTestStep</title>
<path fill="none" stroke="#000000" d="M404.52,-66.7429C412.8036,-78.9075 424.5855,-92.6692 439,-100 461.6364,-111.5122 535.6825,-89.4247 553,-108 598.5716,-156.8817 514.2748,-235.1958 481.3559,-262.6255"/>
<polygon fill="#000000" stroke="#000000" points="479.134,-259.9211 473.5841,-268.946 483.5507,-265.3519 479.134,-259.9211"/>
</g>
</g>
</svg>
