<?xml version="1.0" encoding="UTF-8" standalone="no"?>
<!DOCTYPE svg PUBLIC "-//W3C//DTD SVG 1.1//EN" "http://www.w3.org/Graphics/SVG/1.1/DTD/svg11.dtd">
<!-- Generated by graphviz version 2.40.1 (20161225.0304)
 -->
<!-- Title: PetriNet Pages: 1 -->
<svg xmlns="http://www.w3.org/2000/svg" xmlns:xlink="http://www.w3.org/1999/xlink" width="1081pt" height="628pt" viewBox="0.00 0.00 1081.00 628.00">
<g id="graph0" class="graph" transform="scale(1 1) rotate(0) translate(4 624)">
<title>PetriNet</title>
<polygon fill="#ffffff" stroke="transparent" points="-4,4 -4,-624 1077,-624 1077,4 -4,4"/>
<g id="clust1" class="cluster">
<title>cluster_place_Building Pickles</title>

<text text-anchor="middle" x="246.4741" y="-443.8" font-family="Times,serif" font-size="14.00" fill="#000000">Building Pickles</text>
</g>
<g id="clust2" class="cluster">
<title>cluster_place_UNKNOWN PickleStep</title>

<text text-anchor="middle" x="135.6294" y="-290.8" font-family="Times,serif" font-size="14.00" fill="#000000">UNKNOWN PickleStep</text>
</g>
<g id="clust3" class="cluster">
<title>cluster_place_GlueCode loaded</title>

<text text-anchor="middle" x="368.7915" y="-290.8" font-family="Times,serif" font-size="14.00" fill="#000000">GlueCode loaded</text>
</g>
<g id="clust4" class="cluster">
<title>cluster_place_Executing</title>

<text text-anchor="middle" x="262.3794" y="-290.8" font-family="Times,serif" font-size="14.00" fill="#000000">Executing</text>
</g>
<g id="clust5" class="cluster">
<title>cluster_place_AMBIGUOUS PickleStep</title>

<text text-anchor="middle" x="257.0845" y="-137.8" font-family="Times,serif" font-size="14.00" fill="#000000">AMBIGUOUS PickleStep</text>
</g>
<g id="clust6" class="cluster">
<title>cluster_place_UNDEFINED PickleStep</title>

<text text-anchor="middle" x="87.7432" y="-137.8" font-family="Times,serif" font-size="14.00" fill="#000000">UNDEFINED PickleStep</text>
</g>
<g id="clust7" class="cluster">
<title>cluster_place_Defined PickleStep</title>

<text text-anchor="middle" x="408.8535" y="-137.8" font-family="Times,serif" font-size="14.00" fill="#000000">Defined PickleStep</text>
</g>
<g id="clust8" class="cluster">
<title>cluster_place_Idle</title>

<text text-anchor="middle" x="290.8828" y="-596.8" font-family="Times,serif" font-size="14.00" fill="#000000">Idle</text>
</g>
<g id="clust9" class="cluster">
<title>cluster_place_Loading GlueCode</title>

<text text-anchor="middle" x="375.4604" y="-443.8" font-family="Times,serif" font-size="14.00" fill="#000000">Loading GlueCode</text>
</g>
<g id="clust10" class="cluster">
<title>cluster_place_Running TestStep</title>

<text text-anchor="middle" x="700.7485" y="-290.8" font-family="Times,serif" font-size="14.00" fill="#000000">Running TestStep</text>
</g>
<g id="clust11" class="cluster">
<title>cluster_place_Idle Executors</title>

<text text-anchor="middle" x="698.6226" y="-137.8" font-family="Times,serif" font-size="14.00" fill="#000000">Idle Executors</text>
</g>
<g id="clust12" class="cluster">
<title>cluster_place_PENDING TestStep</title>

<text text-anchor="middle" x="819.3555" y="-137.8" font-family="Times,serif" font-size="14.00" fill="#000000">PENDING TestStep</text>
</g>
<g id="clust13" class="cluster">
<title>cluster_place_FAILED TestStep</title>

<text text-anchor="middle" x="949.0049" y="-137.8" font-family="Times,serif" font-size="14.00" fill="#000000">FAILED TestStep</text>
</g>
<g id="clust14" class="cluster">
<title>cluster_place_PASSED TestStep</title>

<text text-anchor="middle" x="583.0576" y="-137.8" font-family="Times,serif" font-size="14.00" fill="#000000">PASSED TestStep</text>
</g>
<g id="clust15" class="cluster">
<title>cluster_transition_CommandRunTestStep</title>

<text text-anchor="middle" x="497.8423" y="-37.8" font-family="Times,serif" font-size="14.00" fill="#000000">CommandRunTestStep</text>
</g>
<g id="clust16" class="cluster">
<title>cluster_transition_Execute</title>

<text text-anchor="middle" x="264.5415" y="-343.8" font-family="Times,serif" font-size="14.00" fill="#000000">Execute</text>
</g>
<g id="clust17" class="cluster">
<title>cluster_transition_GlueCode</title>

<text text-anchor="middle" x="352.3828" y="-343.8" font-family="Times,serif" font-size="14.00" fill="#000000">GlueCode</text>
</g>
<g id="clust18" class="cluster">
<title>cluster_transition_PickleStep</title>

<text text-anchor="middle" x="185.9414" y="-343.8" font-family="Times,serif" font-size="14.00" fill="#000000">PickleStep</text>
</g>
<g id="clust19" class="cluster">
<title>cluster_transition_PickleStepMatched(0)</title>

<text text-anchor="middle" x="90.5933" y="-190.8" font-family="Times,serif" font-size="14.00" fill="#000000">PickleStepMatched(0)</text>
</g>
<g id="clust20" class="cluster">
<title>cluster_transition_PickleStepMatched(1)</title>

<text text-anchor="middle" x="396.5933" y="-190.8" font-family="Times,serif" font-size="14.00" fill="#000000">PickleStepMatched(1)</text>
</g>
<g id="clust21" class="cluster">
<title>cluster_transition_PickleStepMatched(2+)</title>

<text text-anchor="middle" x="243.541" y="-190.8" font-family="Times,serif" font-size="14.00" fill="#000000">PickleStepMatched(2+)</text>
</g>
<g id="clust22" class="cluster">
<title>cluster_transition_Start</title>

<text text-anchor="middle" x="302.2207" y="-496.8" font-family="Times,serif" font-size="14.00" fill="#000000">Start</text>
</g>
<g id="clust23" class="cluster">
<title>cluster_transition_TestStepFinished(FAILED)</title>

<text text-anchor="middle" x="980.1538" y="-190.8" font-family="Times,serif" font-size="14.00" fill="#000000">TestStepFinished(FAILED)</text>
</g>
<g id="clust24" class="cluster">
<title>cluster_transition_TestStepFinished(PASSED)</title>

<text text-anchor="middle" x="610.2065" y="-190.8" font-family="Times,serif" font-size="14.00" fill="#000000">TestStepFinished(PASSED)</text>
</g>
<g id="clust25" class="cluster">
<title>cluster_transition_TestStepFinished(PENDING)</title>

<text text-anchor="middle" x="795.5044" y="-190.8" font-family="Times,serif" font-size="14.00" fill="#000000">TestStepFinished(PENDING)</text>
</g>
<!-- place_Building Pickles -->
<g id="node1" class="node">
<title>place_Building Pickles</title>
<ellipse fill="none" stroke="#000000" cx="262" cy="-402" rx="27" ry="27"/>
<circle fill="#000000" stroke="none" cx="262" cy="-402" r="4.800000000000001"/>
</g>
<!-- transition_Execute -->
<g id="node16" class="node">
<title>transition_Execute</title>
<polygon fill="#000000" stroke="#000000" points="280,-329 244,-329 244,-322 280,-322 280,-329"/>
</g>
<!-- place_Building Pickles&#45;&gt;transition_Execute -->
<g id="edge4" class="edge">
<title>place_Building Pickles-&gt;transition_Execute</title>
<path fill="none" stroke="#000000" d="M262,-374.8136C262,-362.735 262,-349.0461 262,-339.1606"/>
<polygon fill="#000000" stroke="#000000" points="265.5001,-339.0807 262,-329.0808 258.5001,-339.0808 265.5001,-339.0807"/>
</g>
<!-- transition_PickleStep -->
<g id="node18" class="node">
<title>transition_PickleStep</title>
<polygon fill="#00ff00" stroke="#000000" points="200,-329 164,-329 164,-322 200,-322 200,-329"/>
</g>
<!-- place_Building Pickles&#45;&gt;transition_PickleStep -->
<g id="edge10" class="edge">
<title>place_Building Pickles-&gt;transition_PickleStep</title>
<path fill="none" stroke="#000000" d="M249.3438,-377.7949C235.8665,-363.1499 216.0512,-345.315 200.7966,-334.7122"/>
<polygon fill="#000000" stroke="#000000" points="202.3075,-331.5265 191.9853,-329.1383 198.5652,-337.4422 202.3075,-331.5265"/>
</g>
<!-- place_UNKNOWN PickleStep -->
<g id="node2" class="node">
<title>place_UNKNOWN PickleStep</title>
<ellipse fill="none" stroke="#000000" cx="172" cy="-249" rx="27" ry="27"/>
<circle fill="#000000" stroke="none" cx="172" cy="-249" r="4.800000000000001"/>
</g>
<!-- transition_PickleStepMatched(0) -->
<g id="node19" class="node">
<title>transition_PickleStepMatched(0)</title>
<polygon fill="#000000" stroke="#000000" points="153,-176 117,-176 117,-169 153,-169 153,-176"/>
</g>
<!-- place_UNKNOWN PickleStep&#45;&gt;transition_PickleStepMatched(0) -->
<g id="edge13" class="edge">
<title>place_UNKNOWN PickleStep-&gt;transition_PickleStepMatched(0)</title>
<path fill="none" stroke="#000000" d="M160.0893,-224.3738C153.8216,-211.415 146.3932,-196.0562 141.2539,-185.4303"/>
<polygon fill="#000000" stroke="#000000" points="144.2438,-183.5735 136.7388,-176.0951 137.9421,-186.6214 144.2438,-183.5735"/>
</g>
<!-- transition_PickleStepMatched(1) -->
<g id="node20" class="node">
<title>transition_PickleStepMatched(1)</title>
<polygon fill="#000000" stroke="#000000" points="370,-176 334,-176 334,-169 370,-169 370,-176"/>
</g>
<!-- place_UNKNOWN PickleStep&#45;&gt;transition_PickleStepMatched(1) -->
<g id="edge17" class="edge">
<title>place_UNKNOWN PickleStep-&gt;transition_PickleStepMatched(1)</title>
<path fill="none" stroke="#000000" d="M191.4728,-229.8038C198.8736,-223.6668 207.7611,-217.5497 217,-214 239.8785,-205.2098 305.5048,-217.7748 327,-206 335.4788,-201.3554 341.9032,-192.4729 346.1152,-185.021"/>
<polygon fill="#000000" stroke="#000000" points="349.2661,-186.545 350.5796,-176.0319 342.9968,-183.4313 349.2661,-186.545"/>
</g>
<!-- transition_PickleStepMatched(2+) -->
<g id="node21" class="node">
<title>transition_PickleStepMatched(2+)</title>
<polygon fill="#000000" stroke="#000000" points="280,-176 244,-176 244,-169 280,-169 280,-176"/>
</g>
<!-- place_UNKNOWN PickleStep&#45;&gt;transition_PickleStepMatched(2+) -->
<g id="edge23" class="edge">
<title>place_UNKNOWN PickleStep-&gt;transition_PickleStepMatched(2+)</title>
<path fill="none" stroke="#000000" d="M192.874,-231.2571C210.4239,-216.3397 234.9246,-195.5141 249.5527,-183.0802"/>
<polygon fill="#000000" stroke="#000000" points="252.2149,-185.4109 257.5676,-176.2676 247.6814,-180.0773 252.2149,-185.4109"/>
</g>
<!-- place_GlueCode loaded -->
<g id="node3" class="node">
<title>place_GlueCode loaded</title>
<ellipse fill="none" stroke="#000000" cx="352" cy="-249" rx="27" ry="27"/>

</g>
<!-- place_GlueCode loaded&#45;&gt;transition_Execute -->
<g id="edge5" class="edge">
<title>place_GlueCode loaded-&gt;transition_Execute</title>
<path fill="none" stroke="#000000" d="M351.5652,-276.0913C345.3086,-286.4672 335.6929,-297.7745 325,-306 315.4147,-313.3735 302.6138,-318.5676 290.0419,-321.7309"/>
<polygon fill="#000000" stroke="#000000" points="289.1357,-318.345 280.0744,-323.8353 290.5817,-325.194 289.1357,-318.345"/>
</g>
<!-- place_GlueCode loaded&#45;&gt;transition_PickleStepMatched(1) -->
<g id="edge18" class="edge">
<title>place_GlueCode loaded-&gt;transition_PickleStepMatched(1)</title>
<path fill="none" stroke="#000000" d="M364.6563,-224.7949C366.3033,-211.6697 365.539,-195.9822 362.3631,-185.2351"/>
<polygon fill="#000000" stroke="#000000" points="365.538,-183.7619 358.1806,-176.1383 359.1781,-186.6861 365.538,-183.7619"/>
</g>
<!-- place_GlueCode loaded&#45;&gt;transition_PickleStepMatched(2+) -->
<g id="edge24" class="edge">
<title>place_GlueCode loaded-&gt;transition_PickleStepMatched(2+)</title>
<path fill="none" stroke="#000000" d="M337.4877,-226.0475C321.7704,-210.8967 298.2438,-191.9123 281.0311,-181.0986"/>
<polygon fill="#000000" stroke="#000000" points="282.6185,-177.9738 272.2077,-176.0079 279.1203,-184.037 282.6185,-177.9738"/>
</g>
<!-- place_Executing -->
<g id="node4" class="node">
<title>place_Executing</title>
<ellipse fill="none" stroke="#000000" cx="262" cy="-249" rx="27" ry="27"/>

</g>
<!-- place_Executing&#45;&gt;transition_PickleStepMatched(0) -->
<g id="edge14" class="edge">
<title>place_Executing-&gt;transition_PickleStepMatched(0)</title>
<path fill="none" stroke="#000000" d="M253.928,-223.2271C249.4403,-219.627 244.3017,-216.3581 239,-214 214.0166,-202.8877 201.5913,-219.824 178,-206 168.89,-200.6617 162.0597,-190.57 154.5558,-182.8526"/>
<polygon fill="#000000" stroke="#000000" points="156.6042,-180.0002 146.7179,-176.1906 152.0707,-185.3338 156.6042,-180.0002"/>
</g>
<!-- place_Executing&#45;&gt;transition_PickleStepMatched(1) -->
<g id="edge19" class="edge">
<title>place_Executing-&gt;transition_PickleStepMatched(1)</title>
<path fill="none" stroke="#000000" d="M287.1943,-238.2481C298.0796,-230.59 309.4288,-220.5362 321,-214 330.7898,-208.4701 335.8865,-212.5852 345,-206 352.0585,-200.8997 357.9928,-193.2201 360.452,-186.4999"/>
<polygon fill="#000000" stroke="#000000" points="363.9562,-186.2593 360.6175,-176.2043 356.9571,-186.1467 363.9562,-186.2593"/>
</g>
<!-- place_Executing&#45;&gt;transition_PickleStepMatched(2+) -->
<g id="edge25" class="edge">
<title>place_Executing-&gt;transition_PickleStepMatched(2+)</title>
<path fill="none" stroke="#000000" d="M274.6563,-224.7949C276.3033,-211.6697 275.539,-195.9822 272.3631,-185.2351"/>
<polygon fill="#000000" stroke="#000000" points="275.538,-183.7619 268.1806,-176.1383 269.1781,-186.6861 275.538,-183.7619"/>
</g>
<!-- place_AMBIGUOUS PickleStep -->
<g id="node5" class="node">
<title>place_AMBIGUOUS PickleStep</title>
<ellipse fill="none" stroke="#000000" cx="262" cy="-96" rx="27" ry="27"/>

</g>
<!-- place_UNDEFINED PickleStep -->
<g id="node6" class="node">
<title>place_UNDEFINED PickleStep</title>
<ellipse fill="none" stroke="#000000" cx="132" cy="-96" rx="27" ry="27"/>

</g>
<!-- place_Defined PickleStep -->
<g id="node7" class="node">
<title>place_Defined PickleStep</title>
<ellipse fill="none" stroke="#000000" cx="399" cy="-96" rx="27" ry="27"/>

</g>
<!-- transition_CommandRunTestStep -->
<g id="node15" class="node">
<title>transition_CommandRunTestStep</title>
<polygon fill="#000000" stroke="#000000" points="515,-23 479,-23 479,-16 515,-16 515,-23"/>
</g>
<!-- place_Defined PickleStep&#45;&gt;transition_CommandRunTestStep -->
<g id="edge1" class="edge">
<title>place_Defined PickleStep-&gt;transition_CommandRunTestStep</title>
<path fill="none" stroke="#000000" d="M420.7494,-79.0222C440.3589,-63.7147 468.5062,-41.7426 484.5474,-29.2206"/>
<polygon fill="#000000" stroke="#000000" points="486.7083,-31.974 492.4373,-23.0617 482.4009,-26.4561 486.7083,-31.974"/>
</g>
<!-- place_Idle -->
<g id="node8" class="node">
<title>place_Idle</title>
<ellipse fill="none" stroke="#000000" cx="307" cy="-555" rx="27" ry="27"/>

</g>
<!-- transition_Start -->
<g id="node22" class="node">
<title>transition_Start</title>
<polygon fill="#000000" stroke="#000000" points="325,-482 289,-482 289,-475 325,-475 325,-482"/>
</g>
<!-- place_Idle&#45;&gt;transition_Start -->
<g id="edge29" class="edge">
<title>place_Idle-&gt;transition_Start</title>
<path fill="none" stroke="#000000" d="M307,-527.8136C307,-515.735 307,-502.0461 307,-492.1606"/>
<polygon fill="#000000" stroke="#000000" points="310.5001,-492.0807 307,-482.0808 303.5001,-492.0808 310.5001,-492.0807"/>
</g>
<!-- place_Loading GlueCode -->
<g id="node9" class="node">
<title>place_Loading GlueCode</title>
<ellipse fill="none" stroke="#000000" cx="352" cy="-402" rx="27" ry="27"/>
<circle fill="#000000" stroke="none" cx="352" cy="-402" r="4.800000000000001"/>
</g>
<!-- transition_GlueCode -->
<g id="node17" class="node">
<title>transition_GlueCode</title>
<polygon fill="#ff0000" stroke="#000000" points="370,-329 334,-329 334,-322 370,-322 370,-329"/>
</g>
<!-- place_Loading GlueCode&#45;&gt;transition_GlueCode -->
<g id="edge8" class="edge">
<title>place_Loading GlueCode-&gt;transition_GlueCode</title>
<path fill="none" stroke="#000000" d="M352,-374.8136C352,-362.735 352,-349.0461 352,-339.1606"/>
<polygon fill="#000000" stroke="#000000" points="355.5001,-339.0807 352,-329.0808 348.5001,-339.0808 355.5001,-339.0807"/>
</g>
<!-- place_Running TestStep -->
<g id="node10" class="node">
<title>place_Running TestStep</title>
<ellipse fill="none" stroke="#000000" cx="700" cy="-249" rx="27" ry="27"/>

</g>
<!-- transition_TestStepFinished(FAILED) -->
<g id="node23" class="node">
<title>transition_TestStepFinished(FAILED)</title>
<polygon fill="#000000" stroke="#000000" points="939,-176 903,-176 903,-169 939,-169 939,-176"/>
</g>
<!-- place_Running TestStep&#45;&gt;transition_TestStepFinished(FAILED) -->
<g id="edge32" class="edge">
<title>place_Running TestStep-&gt;transition_TestStepFinished(FAILED)</title>
<path fill="none" stroke="#000000" d="M726.8196,-245.4763C773.6942,-238.9355 868.1877,-223.9379 896,-206 903.8671,-200.926 910.1537,-192.4593 914.455,-185.3074"/>
<polygon fill="#000000" stroke="#000000" points="917.6353,-186.7833 919.2892,-176.3184 911.4702,-183.4678 917.6353,-186.7833"/>
</g>
<!-- transition_TestStepFinished(PASSED) -->
<g id="node24" class="node">
<title>transition_TestStepFinished(PASSED)</title>
<polygon fill="#000000" stroke="#000000" points="682,-176 646,-176 646,-169 682,-169 682,-176"/>
</g>
<!-- place_Running TestStep&#45;&gt;transition_TestStepFinished(PASSED) -->
<g id="edge35" class="edge">
<title>place_Running TestStep-&gt;transition_TestStepFinished(PASSED)</title>
<path fill="none" stroke="#000000" d="M688.4112,-224.3738C682.3129,-211.415 675.0853,-196.0562 670.0849,-185.4303"/>
<polygon fill="#000000" stroke="#000000" points="673.1167,-183.653 665.6918,-176.0951 666.783,-186.6336 673.1167,-183.653"/>
</g>
<!-- transition_TestStepFinished(PENDING) -->
<g id="node25" class="node">
<title>transition_TestStepFinished(PENDING)</title>
<polygon fill="#000000" stroke="#000000" points="754,-176 718,-176 718,-169 754,-169 754,-176"/>
</g>
<!-- place_Running TestStep&#45;&gt;transition_TestStepFinished(PENDING) -->
<g id="edge38" class="edge">
<title>place_Running TestStep-&gt;transition_TestStepFinished(PENDING)</title>
<path fill="none" stroke="#000000" d="M711.5888,-224.3738C717.6871,-211.415 724.9147,-196.0562 729.9151,-185.4303"/>
<polygon fill="#000000" stroke="#000000" points="733.217,-186.6336 734.3082,-176.0951 726.8833,-183.653 733.217,-186.6336"/>
</g>
<!-- place_Idle Executors -->
<g id="node11" class="node">
<title>place_Idle Executors</title>
<ellipse fill="none" stroke="#000000" cx="698" cy="-96" rx="27" ry="27"/>
<circle fill="#000000" stroke="none" cx="704" cy="-92.53589838486225" r="4.800000000000001"/><circle fill="#000000" stroke="none" cx="692" cy="-92.53589838486225" r="4.800000000000001"/><circle fill="#000000" stroke="none" cx="698" cy="-102.92820323027551" r="4.800000000000001"/>
</g>
<!-- place_Idle Executors&#45;&gt;transition_CommandRunTestStep -->
<g id="edge2" class="edge">
<title>place_Idle Executors-&gt;transition_CommandRunTestStep</title>
<path fill="none" stroke="#000000" d="M677.5744,-78.1583C669.6944,-72.0055 660.3366,-65.5292 651,-61 609.5914,-40.9126 557.0356,-29.4152 525.2629,-23.8212"/>
<polygon fill="#000000" stroke="#000000" points="525.7734,-20.3579 515.3307,-22.1465 524.6095,-27.2605 525.7734,-20.3579"/>
</g>
<!-- place_PENDING TestStep -->
<g id="node12" class="node">
<title>place_PENDING TestStep</title>
<ellipse fill="none" stroke="#000000" cx="790" cy="-96" rx="27" ry="27"/>

</g>
<!-- place_FAILED TestStep -->
<g id="node13" class="node">
<title>place_FAILED TestStep</title>
<ellipse fill="none" stroke="#000000" cx="926" cy="-96" rx="27" ry="27"/>

</g>
<!-- place_PASSED TestStep -->
<g id="node14" class="node">
<title>place_PASSED TestStep</title>
<ellipse fill="none" stroke="#000000" cx="607" cy="-96" rx="27" ry="27"/>

</g>
<!-- transition_CommandRunTestStep&#45;&gt;place_Running TestStep -->
<g id="edge3" class="edge">
<title>transition_CommandRunTestStep-&gt;place_Running TestStep</title>
<path fill="none" stroke="#000000" d="M496.116,-23.1494C491.2762,-44.0965 469.9894,-150.0613 520,-206 538.714,-226.9323 615.7783,-239.3257 662.7937,-245.0827"/>
<polygon fill="#000000" stroke="#000000" points="662.5659,-248.58 672.9072,-246.2758 663.3861,-241.6282 662.5659,-248.58"/>
</g>
<!-- transition_Execute&#45;&gt;place_GlueCode loaded -->
<g id="edge6" class="edge">
<title>transition_Execute-&gt;place_GlueCode loaded</title>
<path fill="none" stroke="#000000" d="M259.9265,-321.8613C266.2583,-318.7111 279.2819,-313.4757 289,-306 301.3418,-296.5061 312.2486,-282.9067 322.2535,-271.3724"/>
<polygon fill="#000000" stroke="#000000" points="324.9776,-273.577 329.0425,-263.793 319.7634,-268.9066 324.9776,-273.577"/>
</g>
<!-- transition_Execute&#45;&gt;place_Executing -->
<g id="edge7" class="edge">
<title>transition_Execute-&gt;place_Executing</title>
<path fill="none" stroke="#000000" d="M262,-321.8102C262,-315.2297 262,-300.8144 262,-286.5326"/>
<polygon fill="#000000" stroke="#000000" points="265.5001,-286.2706 262,-276.2707 258.5001,-286.2707 265.5001,-286.2706"/>
</g>
<!-- transition_GlueCode&#45;&gt;place_GlueCode loaded -->
<g id="edge9" class="edge">
<title>transition_GlueCode-&gt;place_GlueCode loaded</title>
<path fill="none" stroke="#000000" d="M352,-321.8102C352,-315.2297 352,-300.8144 352,-286.5326"/>
<polygon fill="#000000" stroke="#000000" points="355.5001,-286.2706 352,-276.2707 348.5001,-286.2707 355.5001,-286.2706"/>
</g>
<!-- transition_PickleStep&#45;&gt;place_Building Pickles -->
<g id="edge11" class="edge">
<title>transition_PickleStep-&gt;place_Building Pickles</title>
<path fill="none" stroke="#000000" d="M179.6368,-329.1817C182.4338,-338.6772 207.567,-364.5239 229.9285,-382.7127"/>
<polygon fill="#000000" stroke="#000000" points="227.9622,-385.6181 237.9951,-389.0228 232.2752,-380.1047 227.9622,-385.6181"/>
</g>
<!-- transition_PickleStep&#45;&gt;place_UNKNOWN PickleStep -->
<g id="edge12" class="edge">
<title>transition_PickleStep-&gt;place_UNKNOWN PickleStep</title>
<path fill="none" stroke="#000000" d="M181.5177,-321.8102C180.6512,-315.1816 178.7456,-300.6035 176.8653,-286.2198"/>
<polygon fill="#000000" stroke="#000000" points="180.2827,-285.359 175.516,-275.8971 173.3417,-286.2664 180.2827,-285.359"/>
</g>
<!-- transition_PickleStepMatched(0)&#45;&gt;place_Executing -->
<g id="edge15" class="edge">
<title>transition_PickleStepMatched(0)-&gt;place_Executing</title>
<path fill="none" stroke="#000000" d="M126.246,-176.4136C121.9268,-183.6341 129.9785,-198.9557 142,-206 165.5913,-219.824 178.0166,-202.8877 203,-214 212.107,-218.0507 220.7326,-224.7885 228.997,-231.2766"/>
<polygon fill="#000000" stroke="#000000" points="227.0926,-234.2281 237.1457,-237.5727 231.3725,-228.6889 227.0926,-234.2281"/>
</g>
<!-- transition_PickleStepMatched(0)&#45;&gt;place_UNDEFINED PickleStep -->
<g id="edge16" class="edge">
<title>transition_PickleStepMatched(0)-&gt;place_UNDEFINED PickleStep</title>
<path fill="none" stroke="#000000" d="M134.8553,-168.8102C134.5972,-162.2297 134.0319,-147.8144 133.4719,-133.5326"/>
<polygon fill="#000000" stroke="#000000" points="136.9587,-133.1258 133.0694,-123.2707 129.9641,-133.4002 136.9587,-133.1258"/>
</g>
<!-- transition_PickleStepMatched(1)&#45;&gt;place_GlueCode loaded -->
<g id="edge20" class="edge">
<title>transition_PickleStepMatched(1)-&gt;place_GlueCode loaded</title>
<path fill="none" stroke="#000000" d="M345.8194,-176.1383C340.5086,-183.1551 338.0879,-199.216 338.5571,-214.4777"/>
<polygon fill="#000000" stroke="#000000" points="335.0936,-215.09 339.3438,-224.7949 342.0733,-214.5578 335.0936,-215.09"/>
</g>
<!-- transition_PickleStepMatched(1)&#45;&gt;place_Executing -->
<g id="edge21" class="edge">
<title>transition_PickleStepMatched(1)-&gt;place_Executing</title>
<path fill="none" stroke="#000000" d="M339.805,-176.2043C328.7093,-183.076 320.2936,-197.8395 309,-206 299.8865,-212.5852 294.7898,-208.4701 285,-214 283.2276,-215.0011 281.4605,-216.0848 279.7215,-217.2297"/>
<polygon fill="#000000" stroke="#000000" points="277.3545,-214.6257 271.3674,-223.3667 281.4987,-220.2671 277.3545,-214.6257"/>
</g>
<!-- transition_PickleStepMatched(1)&#45;&gt;place_Defined PickleStep -->
<g id="edge22" class="edge">
<title>transition_PickleStepMatched(1)-&gt;place_Defined PickleStep</title>
<path fill="none" stroke="#000000" d="M354.2669,-168.8102C358.8465,-161.3562 369.6022,-143.8496 379.419,-127.8712"/>
<polygon fill="#000000" stroke="#000000" points="382.4783,-129.5777 384.731,-119.2251 376.514,-125.9133 382.4783,-129.5777"/>
</g>
<!-- transition_PickleStepMatched(2+)&#45;&gt;place_GlueCode loaded -->
<g id="edge26" class="edge">
<title>transition_PickleStepMatched(2+)-&gt;place_GlueCode loaded</title>
<path fill="none" stroke="#000000" d="M260.1583,-176.2749C264.4483,-186.0888 294.2103,-212.9037 319.2824,-231.0818"/>
<polygon fill="#000000" stroke="#000000" points="317.3625,-234.0101 327.5617,-236.8783 321.3772,-228.2758 317.3625,-234.0101"/>
</g>
<!-- transition_PickleStepMatched(2+)&#45;&gt;place_Executing -->
<g id="edge27" class="edge">
<title>transition_PickleStepMatched(2+)-&gt;place_Executing</title>
<path fill="none" stroke="#000000" d="M255.8194,-176.1383C250.5086,-183.1551 248.0879,-199.216 248.5571,-214.4777"/>
<polygon fill="#000000" stroke="#000000" points="245.0936,-215.09 249.3438,-224.7949 252.0733,-214.5578 245.0936,-215.09"/>
</g>
<!-- transition_PickleStepMatched(2+)&#45;&gt;place_AMBIGUOUS PickleStep -->
<g id="edge28" class="edge">
<title>transition_PickleStepMatched(2+)-&gt;place_AMBIGUOUS PickleStep</title>
<path fill="none" stroke="#000000" d="M262,-168.8102C262,-162.2297 262,-147.8144 262,-133.5326"/>
<polygon fill="#000000" stroke="#000000" points="265.5001,-133.2706 262,-123.2707 258.5001,-133.2707 265.5001,-133.2706"/>
</g>
<!-- transition_Start&#45;&gt;place_Building Pickles -->
<g id="edge30" class="edge">
<title>transition_Start-&gt;place_Building Pickles</title>
<path fill="none" stroke="#000000" d="M304.8296,-474.8102C300.5148,-467.4751 290.4739,-450.4056 281.1983,-434.6371"/>
<polygon fill="#000000" stroke="#000000" points="283.9614,-432.4313 275.8744,-425.5865 277.9279,-435.9805 283.9614,-432.4313"/>
</g>
<!-- transition_Start&#45;&gt;place_Loading GlueCode -->
<g id="edge31" class="edge">
<title>transition_Start-&gt;place_Loading GlueCode</title>
<path fill="none" stroke="#000000" d="M309.1704,-474.8102C313.4852,-467.4751 323.5261,-450.4056 332.8017,-434.6371"/>
<polygon fill="#000000" stroke="#000000" points="336.0721,-435.9805 338.1256,-425.5865 330.0386,-432.4313 336.0721,-435.9805"/>
</g>
<!-- transition_TestStepFinished(FAILED)&#45;&gt;place_Idle Executors -->
<g id="edge33" class="edge">
<title>transition_TestStepFinished(FAILED)-&gt;place_Idle Executors</title>
<path fill="none" stroke="#000000" d="M915.0709,-168.9922C910.1474,-166.2745 902.8643,-162.6959 896,-161 863.5937,-152.9937 775.8798,-167.8819 746,-153 734.6006,-147.3224 724.8706,-137.5833 717.2118,-127.7456"/>
<polygon fill="#000000" stroke="#000000" points="719.9741,-125.5926 711.2743,-119.5458 714.3044,-129.6981 719.9741,-125.5926"/>
</g>
<!-- transition_TestStepFinished(FAILED)&#45;&gt;place_FAILED TestStep -->
<g id="edge34" class="edge">
<title>transition_TestStepFinished(FAILED)-&gt;place_FAILED TestStep</title>
<path fill="none" stroke="#000000" d="M921.2412,-168.8102C921.6713,-162.2297 922.6134,-147.8144 923.5469,-133.5326"/>
<polygon fill="#000000" stroke="#000000" points="927.0579,-133.4777 924.2176,-123.2707 920.0728,-133.0211 927.0579,-133.4777"/>
</g>
<!-- transition_TestStepFinished(PASSED)&#45;&gt;place_Idle Executors -->
<g id="edge36" class="edge">
<title>transition_TestStepFinished(PASSED)-&gt;place_Idle Executors</title>
<path fill="none" stroke="#000000" d="M665.6399,-168.8102C668.8036,-161.692 676.0416,-145.4064 682.8717,-130.0387"/>
<polygon fill="#000000" stroke="#000000" points="686.1685,-131.2386 687.0316,-120.6789 679.7718,-128.3955 686.1685,-131.2386"/>
</g>
<!-- transition_TestStepFinished(PASSED)&#45;&gt;place_PASSED TestStep -->
<g id="edge37" class="edge">
<title>transition_TestStepFinished(PASSED)-&gt;place_PASSED TestStep</title>
<path fill="none" stroke="#000000" d="M658.6293,-168.751C653.6642,-165.1098 646.2779,-159.232 641,-153 634.8203,-145.7033 629.0743,-137.1477 624.1302,-128.9161"/>
<polygon fill="#000000" stroke="#000000" points="627.1242,-127.1015 619.0976,-120.186 621.0597,-130.5975 627.1242,-127.1015"/>
</g>
<!-- transition_TestStepFinished(PENDING)&#45;&gt;place_Idle Executors -->
<g id="edge39" class="edge">
<title>transition_TestStepFinished(PENDING)-&gt;place_Idle Executors</title>
<path fill="none" stroke="#000000" d="M734.1672,-168.8102C730.5732,-161.5749 722.2745,-144.8683 714.5319,-129.2814"/>
<polygon fill="#000000" stroke="#000000" points="717.6606,-127.7124 710.0773,-120.3135 711.3915,-130.8265 717.6606,-127.7124"/>
</g>
<!-- transition_TestStepFinished(PENDING)&#45;&gt;place_PENDING TestStep -->
<g id="edge40" class="edge">
<title>transition_TestStepFinished(PENDING)-&gt;place_PENDING TestStep</title>
<path fill="none" stroke="#000000" d="M740.3007,-168.9C744.5831,-165.1859 751.1942,-159.0917 756,-153 761.87,-145.5594 767.4778,-137.016 772.3859,-128.8466"/>
<polygon fill="#000000" stroke="#000000" points="775.4136,-130.6024 777.4164,-120.1985 769.3629,-127.0826 775.4136,-130.6024"/>
</g>
</g>
</svg>
